<svg width="780" height="900" viewBox="0 0 780 900" fill="none" xmlns="http://www.w3.org/2000/svg">
<g opacity="0.15">
<circle cx="390" cy="390" r="390" fill="#36536B"/>
<circle cx="390" cy="390" r="390" fill="#36536B"/>
<mask id="mask0" mask-type="alpha" maskUnits="userSpaceOnUse" x="0" y="0" width="780" height="780">
<circle cx="390" cy="390" r="390" fill="white"/>
</mask>
<g mask="url(#mask0)">
</g>
</g>
<path fill-rule="evenodd" clip-rule="evenodd" d="M343.303 660.273H435.793C444.663 660.273 451.854 667.106 451.854 675.535V884.465C451.854 892.894 444.663 899.727 435.793 899.727H343.303C334.433 899.727 327.242 892.894 327.242 884.465V675.535C327.242 667.106 334.433 660.273 343.303 660.273Z" fill="#213648"/>
<path opacity="0.595562" fill-rule="evenodd" clip-rule="evenodd" d="M436.151 660H342.89C338.536 660.263 334.521 662.235 330.844 665.915C333.208 663.867 337.426 661.125 343.003 661.125C343.003 661.125 432.321 661.125 436.038 661.125C441.615 661.125 445.833 663.867 448.197 665.915C444.52 662.235 440.505 660.263 436.151 660Z" fill="url(#paint0_linear)" fill-opacity="0.65"/>
<path opacity="0.75" fill-rule="evenodd" clip-rule="evenodd" d="M449.331 882.082V676.791C449.331 671.283 447.291 669.247 446.074 667.94C444.857 666.632 444.805 665.965 446.554 666.952C448.302 667.94 451.799 670.815 451.799 676.791V882.082C451.799 888.059 448.302 890.934 446.554 891.921C444.805 892.908 444.857 892.241 446.074 890.934C447.291 889.626 449.331 887.59 449.331 882.082Z" fill="url(#paint1_linear)"/>
<path opacity="0.75" fill-rule="evenodd" clip-rule="evenodd" d="M329.711 882.082V676.791C329.711 671.283 331.75 669.247 332.967 667.94C334.184 666.632 334.236 665.965 332.487 666.952C330.739 667.94 327.242 670.815 327.242 676.791V882.082C327.242 888.059 330.739 890.934 332.487 891.921C334.236 892.908 334.184 892.241 332.967 890.934C331.75 889.626 329.711 887.59 329.711 882.082Z" fill="url(#paint2_linear)"/>
<path fill-rule="evenodd" clip-rule="evenodd" d="M326 709.948C326 709.285 326.538 708.748 327.201 708.748C327.864 708.748 328.401 709.285 328.401 709.948V738.435C328.401 739.098 327.864 739.636 327.201 739.636C326.538 739.636 326 739.098 326 738.435V709.948Z" fill="#2E423C"/>
<path fill-rule="evenodd" clip-rule="evenodd" d="M450.557 735.141C450.557 734.478 451.095 733.941 451.758 733.941C452.421 733.941 452.958 734.478 452.958 735.141V755.276C452.958 755.939 452.421 756.477 451.758 756.477C451.095 756.477 450.557 755.939 450.557 755.276V735.141Z" fill="#2E423C"/>
<path fill-rule="evenodd" clip-rule="evenodd" d="M378.561 665.973L342.575 665.973C337.204 665.973 333.291 669.604 333.291 674.345V877.092C333.291 883.274 339.337 888.752 346.175 888.752H432.909C439.495 888.752 445.793 883.232 445.793 877.092V674.893C445.793 669.21 441.542 666.007 436.509 665.973H399.952C399.814 665.996 397.302 667.02 396.241 669.604C395.18 672.187 393.044 674.246 390.706 674.246H387.99C386.879 674.246 383.953 673.176 382.471 669.604C380.99 666.031 378.7 665.996 378.561 665.973Z" fill="white"/>
<mask id="mask1" mask-type="alpha" maskUnits="userSpaceOnUse" x="333" y="665" width="113" height="224">
<path fill-rule="evenodd" clip-rule="evenodd" d="M378.561 665.973L342.575 665.973C337.204 665.973 333.291 669.604 333.291 674.345V877.092C333.291 883.274 339.337 888.752 346.175 888.752H432.909C439.495 888.752 445.793 883.232 445.793 877.092V674.893C445.793 669.21 441.542 666.007 436.509 665.973H399.952C399.814 665.996 397.302 667.02 396.241 669.604C395.18 672.187 393.044 674.246 390.706 674.246H387.99C386.879 674.246 383.953 673.176 382.471 669.604C380.99 666.031 378.7 665.996 378.561 665.973Z" fill="white"/>
</mask>
<g mask="url(#mask1)">
<rect x="333" y="666" width="113" height="223" fill="url(#paint3_linear)"/>
<path fill-rule="evenodd" clip-rule="evenodd" d="M384.762 725.311V727.2H376.543V725.526C376.543 724.962 376.649 724.475 376.861 724.063C377.072 723.65 377.352 723.292 377.7 722.987C378.048 722.683 378.43 722.415 378.846 722.185C379.261 721.954 379.677 721.737 380.095 721.532C380.513 721.327 380.896 721.121 381.244 720.914C381.593 720.706 381.873 720.475 382.084 720.219C382.296 719.963 382.401 719.661 382.401 719.312C382.401 718.867 382.245 718.503 381.933 718.222C381.621 717.94 381.194 717.799 380.652 717.799C380.09 717.799 379.613 717.961 379.221 718.283C378.829 718.606 378.586 719.092 378.493 719.743H376.334C376.345 719.036 376.511 718.395 376.834 717.819C377.156 717.243 377.64 716.786 378.284 716.448C378.929 716.11 379.739 715.941 380.714 715.941C381.55 715.941 382.271 716.082 382.877 716.363C383.483 716.645 383.952 717.037 384.282 717.538C384.612 718.04 384.777 718.626 384.777 719.297C384.777 719.855 384.674 720.336 384.467 720.741C384.261 721.145 383.988 721.491 383.647 721.778C383.307 722.064 382.933 722.315 382.525 722.53C382.118 722.745 381.711 722.945 381.306 723.129C380.901 723.314 380.529 723.502 380.188 723.694C379.848 723.886 379.574 724.102 379.368 724.343C379.161 724.583 379.058 724.873 379.058 725.211V725.311H384.762ZM373.997 716.095V727.2H371.707V718.882H369.71V717.615C370.35 717.615 370.867 717.555 371.262 717.435C371.657 717.314 371.952 717.14 372.148 716.912C372.344 716.685 372.46 716.412 372.496 716.095H373.997ZM388.739 721.855V719.451H386.263V721.855H388.739ZM388.739 724.758V727.154H386.263V724.758H388.739ZM397.654 727.2V724.742H399.379V722.861H397.654V716.095H395.433L390.333 722.899V724.742H395.487L395.479 727.2H397.654ZM392.423 722.861H395.487V718.79L392.423 722.861ZM404.611 727.369C405.591 727.369 406.434 727.15 407.141 726.712C407.848 726.274 408.391 725.614 408.77 724.731C409.149 723.847 409.339 722.743 409.339 721.417C409.339 720.306 409.154 719.339 408.785 718.518C408.417 717.696 407.888 717.061 407.199 716.613C406.51 716.165 405.691 715.941 404.742 715.941C403.896 715.941 403.158 716.102 402.529 716.425C401.9 716.747 401.409 717.193 401.059 717.761C400.708 718.329 400.532 718.977 400.532 719.704C400.532 720.426 400.699 721.049 401.032 721.574C401.364 722.099 401.823 722.503 402.409 722.788C402.994 723.072 403.666 723.214 404.425 723.214C404.843 723.214 405.222 723.159 405.562 723.049C405.903 722.939 406.201 722.783 406.456 722.58C406.712 722.378 406.911 722.141 407.056 721.87C407.118 722.756 407.047 723.472 406.843 724.02C406.639 724.568 406.335 724.967 405.93 725.218C405.525 725.469 405.054 725.595 404.518 725.595C404.033 725.595 403.63 725.46 403.31 725.191C402.991 724.923 402.784 724.573 402.691 724.143H400.54C400.587 724.793 400.801 725.36 401.182 725.844C401.564 726.328 402.057 726.703 402.66 726.969C403.264 727.236 403.914 727.369 404.611 727.369ZM403.473 720.952C403.813 721.272 404.26 721.432 404.812 721.432C405.126 721.432 405.432 721.362 405.729 721.221C406.025 721.08 406.269 720.902 406.46 720.687C406.651 720.472 406.746 720.249 406.746 720.019C406.751 719.522 406.673 719.096 406.51 718.74C406.348 718.384 406.121 718.112 405.829 717.922C405.538 717.733 405.199 717.638 404.812 717.638C404.456 717.638 404.138 717.72 403.86 717.884C403.581 718.048 403.362 718.278 403.202 718.575C403.042 718.872 402.962 719.215 402.962 719.604C402.962 720.183 403.132 720.632 403.473 720.952Z" fill="white"/>
</g>
<g clip-path="url(#clip0)">
<rect x="336.244" y="740" width="105.004" height="42.5532" rx="2" fill="#FBFCFE"/>
<path d="M344.115 757.31V756.885H346.85V757.31H345.748V760.5H345.283V757.31H344.115ZM347.351 760.5V756.785H347.801V758.295C347.845 758.223 347.903 758.157 347.976 758.095C348.05 758.032 348.139 757.981 348.244 757.942C348.349 757.902 348.47 757.882 348.609 757.882C348.777 757.882 348.93 757.914 349.066 757.977C349.203 758.039 349.311 758.127 349.391 758.242C349.471 758.357 349.511 758.494 349.511 758.652V760.5H349.049V758.745C349.049 758.59 348.995 758.471 348.889 758.387C348.784 758.302 348.646 758.26 348.476 758.26C348.361 758.26 348.253 758.279 348.151 758.317C348.05 758.354 347.967 758.411 347.904 758.487C347.842 758.562 347.811 758.658 347.811 758.775V760.5H347.351ZM350.562 759.315C350.562 759.478 350.589 759.627 350.642 759.76C350.697 759.892 350.78 759.997 350.89 760.075C351.001 760.153 351.14 760.192 351.307 760.192C351.472 760.192 351.614 760.154 351.732 760.077C351.852 760.001 351.929 759.89 351.962 759.745H352.4C352.368 759.92 352.298 760.067 352.19 760.188C352.081 760.307 351.95 760.398 351.797 760.46C351.644 760.52 351.484 760.55 351.317 760.55C351.075 760.55 350.863 760.498 350.68 760.392C350.496 760.287 350.353 760.137 350.25 759.94C350.146 759.743 350.095 759.507 350.095 759.232C350.095 758.961 350.141 758.722 350.235 758.517C350.328 758.312 350.463 758.152 350.64 758.037C350.818 757.922 351.032 757.865 351.282 757.865C351.525 757.865 351.731 757.917 351.9 758.022C352.068 758.127 352.195 758.276 352.282 758.467C352.37 758.657 352.415 758.883 352.415 759.145V759.315H350.562ZM350.565 759.002H351.97C351.97 758.854 351.945 758.721 351.895 758.602C351.845 758.482 351.768 758.388 351.665 758.32C351.563 758.25 351.435 758.215 351.28 758.215C351.118 758.215 350.984 758.254 350.877 758.332C350.772 758.409 350.693 758.508 350.64 758.63C350.588 758.75 350.563 758.874 350.565 759.002ZM354.168 761.305V757.915H354.628L354.633 758.365C354.663 758.312 354.701 758.256 354.748 758.197C354.796 758.139 354.854 758.085 354.923 758.035C354.993 757.985 355.073 757.944 355.165 757.912C355.258 757.881 355.364 757.865 355.483 757.865C355.689 757.865 355.871 757.912 356.028 758.007C356.186 758.101 356.309 758.244 356.398 758.437C356.486 758.631 356.53 758.876 356.53 759.172C356.53 759.469 356.487 759.72 356.4 759.925C356.315 760.128 356.192 760.283 356.03 760.39C355.868 760.497 355.673 760.55 355.445 760.55C355.33 760.55 355.228 760.533 355.138 760.5C355.049 760.468 354.972 760.427 354.905 760.375C354.84 760.322 354.785 760.265 354.74 760.205C354.697 760.145 354.661 760.087 354.633 760.032V761.305H354.168ZM355.358 760.19C355.571 760.19 355.745 760.109 355.88 759.947C356.015 759.784 356.083 759.531 356.083 759.187C356.083 758.892 356.021 758.658 355.898 758.485C355.774 758.312 355.594 758.225 355.358 758.225C355.118 758.225 354.936 758.314 354.813 758.492C354.689 758.669 354.628 758.901 354.628 759.187C354.628 759.372 354.655 759.541 354.71 759.692C354.765 759.844 354.847 759.965 354.955 760.055C355.063 760.145 355.198 760.19 355.358 760.19ZM357.817 760.55C357.651 760.55 357.503 760.521 357.375 760.462C357.246 760.402 357.146 760.317 357.072 760.205C357.001 760.093 356.965 759.958 356.965 759.8C356.965 759.513 357.065 759.3 357.265 759.16C357.465 759.02 357.786 758.945 358.227 758.935L358.69 758.922V758.72C358.69 758.562 358.642 758.437 358.547 758.345C358.452 758.252 358.305 758.205 358.105 758.205C357.956 758.207 357.826 758.242 357.712 758.31C357.601 758.378 357.528 758.49 357.495 758.645H357.087C357.097 758.477 357.145 758.335 357.23 758.22C357.315 758.103 357.433 758.015 357.585 757.955C357.738 757.895 357.919 757.865 358.127 757.865C358.352 757.865 358.539 757.897 358.687 757.96C358.837 758.023 358.949 758.117 359.022 758.24C359.097 758.363 359.135 758.515 359.135 758.695V760.5H358.74L358.707 760.015C358.607 760.217 358.48 760.357 358.325 760.435C358.171 760.512 358.002 760.55 357.817 760.55ZM357.957 760.217C358.044 760.217 358.13 760.202 358.215 760.17C358.301 760.138 358.381 760.096 358.452 760.042C358.524 759.987 358.581 759.927 358.622 759.86C358.666 759.792 358.688 759.722 358.69 759.65V759.207L358.305 759.215C358.108 759.218 357.943 759.238 357.81 759.275C357.678 759.312 357.579 759.369 357.512 759.447C357.447 759.526 357.415 759.628 357.415 759.755C357.415 759.9 357.465 760.013 357.565 760.095C357.666 760.177 357.797 760.217 357.957 760.217ZM360.096 761.325C359.945 761.325 359.841 761.314 359.784 761.293C359.727 761.271 359.699 761.26 359.699 761.26V760.96L359.961 760.965C360.058 760.968 360.138 760.962 360.201 760.945C360.265 760.928 360.316 760.906 360.354 760.878C360.392 760.849 360.421 760.818 360.441 760.783C360.463 760.748 360.481 760.714 360.494 760.683L360.584 760.437L359.574 757.915H360.041L360.804 759.91L361.561 757.915H362.014L360.924 760.695C360.857 760.858 360.782 760.986 360.699 761.078C360.617 761.169 360.526 761.233 360.424 761.27C360.324 761.307 360.215 761.325 360.096 761.325ZM362.508 760.5V757.915H362.953V758.29C363.024 758.177 363.123 758.077 363.248 757.992C363.373 757.907 363.535 757.865 363.735 757.865C363.828 757.865 363.923 757.881 364.02 757.912C364.118 757.944 364.208 757.992 364.29 758.055C364.372 758.118 364.435 758.196 364.48 758.287C364.56 758.161 364.668 758.059 364.805 757.982C364.942 757.904 365.096 757.865 365.268 757.865C365.358 757.865 365.452 757.879 365.55 757.907C365.648 757.934 365.739 757.982 365.823 758.052C365.908 758.121 365.977 758.217 366.03 758.34C366.083 758.462 366.11 758.618 366.11 758.81V760.5H365.645V758.855C365.645 758.698 365.62 758.577 365.57 758.492C365.52 758.406 365.454 758.345 365.373 758.31C365.293 758.275 365.207 758.257 365.115 758.257C365.035 758.257 364.95 758.273 364.86 758.305C364.77 758.337 364.693 758.39 364.63 758.465C364.567 758.54 364.535 758.642 364.535 758.772V760.5H364.075V758.72C364.075 758.618 364.048 758.533 363.993 758.465C363.939 758.397 363.872 758.345 363.79 758.31C363.71 758.275 363.63 758.257 363.55 758.257C363.462 758.257 363.373 758.275 363.283 758.31C363.194 758.345 363.119 758.401 363.058 758.477C362.998 758.552 362.968 758.651 362.968 758.772V760.5H362.508ZM367.164 759.315C367.164 759.478 367.19 759.627 367.244 759.76C367.299 759.892 367.381 759.997 367.491 760.075C367.603 760.153 367.742 760.192 367.909 760.192C368.074 760.192 368.215 760.154 368.334 760.077C368.454 760.001 368.53 759.89 368.564 759.745H369.001C368.97 759.92 368.9 760.067 368.791 760.188C368.683 760.307 368.552 760.398 368.399 760.46C368.245 760.52 368.085 760.55 367.919 760.55C367.677 760.55 367.465 760.498 367.281 760.392C367.098 760.287 366.955 760.137 366.851 759.94C366.748 759.743 366.696 759.507 366.696 759.232C366.696 758.961 366.743 758.722 366.836 758.517C366.93 758.312 367.065 758.152 367.241 758.037C367.42 757.922 367.634 757.865 367.884 757.865C368.127 757.865 368.333 757.917 368.501 758.022C368.67 758.127 368.797 758.276 368.884 758.467C368.972 758.657 369.016 758.883 369.016 759.145V759.315H367.164ZM367.166 759.002H368.571C368.571 758.854 368.546 758.721 368.496 758.602C368.446 758.482 368.37 758.388 368.266 758.32C368.165 758.25 368.036 758.215 367.881 758.215C367.72 758.215 367.585 758.254 367.479 758.332C367.374 758.409 367.295 758.508 367.241 758.63C367.19 758.75 367.165 758.874 367.166 759.002ZM369.651 760.5V757.915H370.099V758.29C370.14 758.218 370.198 758.151 370.271 758.087C370.346 758.024 370.436 757.973 370.541 757.935C370.648 757.897 370.77 757.877 370.909 757.877C371.072 757.877 371.222 757.91 371.359 757.975C371.497 758.04 371.607 758.142 371.689 758.28C371.772 758.417 371.814 758.593 371.814 758.81V760.5H371.351V758.855C371.351 758.653 371.298 758.504 371.191 758.407C371.086 758.309 370.949 758.26 370.781 758.26C370.664 758.26 370.555 758.279 370.454 758.317C370.352 758.354 370.269 758.411 370.206 758.487C370.143 758.562 370.111 758.657 370.111 758.772V760.5H369.651ZM373.728 758.252H373.146V759.86C373.146 759.952 373.155 760.019 373.173 760.062C373.193 760.104 373.226 760.131 373.271 760.142C373.317 760.154 373.381 760.16 373.461 760.16H373.743V760.47C373.711 760.482 373.663 760.492 373.598 760.5C373.535 760.508 373.456 760.513 373.361 760.513C373.182 760.513 373.044 760.488 372.946 760.44C372.847 760.392 372.778 760.32 372.738 760.225C372.7 760.13 372.681 760.013 372.681 759.875V758.252H372.261V757.915H372.693L372.806 757.162H373.146V757.912H373.728V758.252ZM375.545 760.5V756.785H375.995V758.295C376.038 758.223 376.096 758.157 376.17 758.095C376.243 758.032 376.332 757.981 376.437 757.942C376.542 757.902 376.664 757.882 376.802 757.882C376.97 757.882 377.123 757.914 377.26 757.977C377.396 758.039 377.505 758.127 377.585 758.242C377.665 758.357 377.705 758.494 377.705 758.652V760.5H377.242V758.745C377.242 758.59 377.189 758.471 377.082 758.387C376.977 758.302 376.84 758.26 376.67 758.26C376.555 758.26 376.446 758.279 376.345 758.317C376.243 758.354 376.16 758.411 376.097 758.487C376.035 758.562 376.005 758.658 376.005 758.775V760.5H375.545ZM379.131 760.55C378.964 760.55 378.817 760.521 378.688 760.462C378.56 760.402 378.459 760.317 378.386 760.205C378.314 760.093 378.278 759.958 378.278 759.8C378.278 759.513 378.378 759.3 378.578 759.16C378.778 759.02 379.099 758.945 379.541 758.935L380.003 758.922V758.72C380.003 758.562 379.956 758.437 379.861 758.345C379.766 758.252 379.618 758.205 379.418 758.205C379.27 758.207 379.139 758.242 379.026 758.31C378.914 758.378 378.842 758.49 378.808 758.645H378.401C378.411 758.477 378.458 758.335 378.543 758.22C378.628 758.103 378.747 758.015 378.898 757.955C379.052 757.895 379.232 757.865 379.441 757.865C379.666 757.865 379.852 757.897 380.001 757.96C380.151 758.023 380.262 758.117 380.336 758.24C380.411 758.363 380.448 758.515 380.448 758.695V760.5H380.053L380.021 760.015C379.921 760.217 379.793 760.357 379.638 760.435C379.485 760.512 379.316 760.55 379.131 760.55ZM379.271 760.217C379.357 760.217 379.443 760.202 379.528 760.17C379.615 760.138 379.694 760.096 379.766 760.042C379.837 759.987 379.894 759.927 379.936 759.86C379.979 759.792 380.002 759.722 380.003 759.65V759.207L379.618 759.215C379.422 759.218 379.257 759.238 379.123 759.275C378.992 759.312 378.892 759.369 378.826 759.447C378.761 759.526 378.728 759.628 378.728 759.755C378.728 759.9 378.778 760.013 378.878 760.095C378.98 760.177 379.111 760.217 379.271 760.217ZM382.112 760.55C381.932 760.55 381.764 760.523 381.609 760.467C381.456 760.411 381.328 760.323 381.227 760.205C381.125 760.085 381.061 759.932 381.034 759.747H381.454C381.477 759.849 381.519 759.934 381.579 760.002C381.641 760.069 381.717 760.12 381.809 760.155C381.901 760.188 382.001 760.205 382.109 760.205C382.282 760.205 382.422 760.172 382.529 760.107C382.636 760.042 382.689 759.942 382.689 759.807C382.689 759.712 382.661 759.637 382.604 759.58C382.549 759.522 382.463 759.479 382.347 759.452L381.812 759.32C381.603 759.27 381.437 759.192 381.312 759.085C381.187 758.978 381.124 758.829 381.124 758.637C381.122 758.486 381.158 758.352 381.232 758.237C381.305 758.122 381.415 758.032 381.562 757.965C381.708 757.898 381.891 757.865 382.109 757.865C382.389 757.865 382.615 757.928 382.787 758.055C382.96 758.18 383.05 758.364 383.057 758.607H382.649C382.632 758.484 382.577 758.387 382.482 758.315C382.388 758.242 382.262 758.205 382.104 758.205C381.939 758.205 381.805 758.238 381.702 758.305C381.598 758.37 381.547 758.472 381.547 758.61C381.547 758.702 381.583 758.774 381.657 758.827C381.73 758.879 381.838 758.922 381.982 758.957L382.499 759.088C382.619 759.119 382.717 759.161 382.794 759.212C382.872 759.264 382.934 759.322 382.979 759.385C383.026 759.448 383.058 759.515 383.077 759.585C383.097 759.653 383.107 759.719 383.107 759.782C383.107 759.941 383.067 760.077 382.987 760.192C382.908 760.306 382.795 760.394 382.647 760.457C382.5 760.519 382.322 760.55 382.112 760.55ZM386.163 760.55C386.011 760.55 385.883 760.53 385.778 760.49C385.675 760.45 385.59 760.399 385.523 760.337C385.456 760.274 385.405 760.21 385.368 760.145C385.331 760.078 385.305 760.02 385.288 759.97L385.238 760.5H384.885V756.785H385.35V758.325C385.372 758.282 385.405 758.234 385.448 758.182C385.493 758.131 385.55 758.081 385.62 758.032C385.69 757.984 385.773 757.944 385.868 757.912C385.965 757.881 386.075 757.865 386.198 757.865C386.521 757.865 386.778 757.977 386.968 758.202C387.16 758.427 387.255 758.759 387.255 759.197C387.255 759.469 387.215 759.707 387.133 759.91C387.051 760.112 386.93 760.269 386.768 760.382C386.606 760.494 386.405 760.55 386.163 760.55ZM386.08 760.195C386.29 760.195 386.461 760.114 386.593 759.952C386.725 759.789 386.79 759.53 386.79 759.175C386.79 758.873 386.729 758.64 386.605 758.475C386.484 758.308 386.305 758.225 386.07 758.225C385.899 758.225 385.76 758.262 385.655 758.337C385.552 758.411 385.475 758.518 385.425 758.66C385.377 758.802 385.352 758.973 385.35 759.175C385.35 759.537 385.406 759.797 385.518 759.957C385.631 760.116 385.819 760.195 386.08 760.195ZM388.189 759.315C388.189 759.478 388.216 759.627 388.269 759.76C388.324 759.892 388.407 759.997 388.517 760.075C388.628 760.153 388.767 760.192 388.934 760.192C389.099 760.192 389.241 760.154 389.359 760.077C389.479 760.001 389.556 759.89 389.589 759.745H390.027C389.995 759.92 389.925 760.067 389.817 760.188C389.708 760.307 389.577 760.398 389.424 760.46C389.271 760.52 389.111 760.55 388.944 760.55C388.702 760.55 388.49 760.498 388.307 760.392C388.123 760.287 387.98 760.137 387.877 759.94C387.773 759.743 387.722 759.507 387.722 759.232C387.722 758.961 387.768 758.722 387.862 758.517C387.955 758.312 388.09 758.152 388.267 758.037C388.445 757.922 388.659 757.865 388.909 757.865C389.152 757.865 389.358 757.917 389.527 758.022C389.695 758.127 389.822 758.276 389.909 758.467C389.997 758.657 390.042 758.883 390.042 759.145V759.315H388.189ZM388.192 759.002H389.597C389.597 758.854 389.572 758.721 389.522 758.602C389.472 758.482 389.395 758.388 389.292 758.32C389.19 758.25 389.062 758.215 388.907 758.215C388.745 758.215 388.611 758.254 388.504 758.332C388.399 758.409 388.32 758.508 388.267 758.63C388.215 758.75 388.19 758.874 388.192 759.002ZM391.006 759.315C391.006 759.478 391.033 759.627 391.086 759.76C391.141 759.892 391.224 759.997 391.334 760.075C391.446 760.153 391.585 760.192 391.751 760.192C391.916 760.192 392.058 760.154 392.176 760.077C392.296 760.001 392.373 759.89 392.406 759.745H392.844C392.812 759.92 392.742 760.067 392.634 760.188C392.526 760.307 392.395 760.398 392.241 760.46C392.088 760.52 391.928 760.55 391.761 760.55C391.52 760.55 391.307 760.498 391.124 760.392C390.941 760.287 390.797 760.137 390.694 759.94C390.591 759.743 390.539 759.507 390.539 759.232C390.539 758.961 390.586 758.722 390.679 758.517C390.772 758.312 390.907 758.152 391.084 758.037C391.262 757.922 391.476 757.865 391.726 757.865C391.97 757.865 392.176 757.917 392.344 758.022C392.512 758.127 392.64 758.276 392.726 758.467C392.815 758.657 392.859 758.883 392.859 759.145V759.315H391.006ZM391.009 759.002H392.414C392.414 758.854 392.389 758.721 392.339 758.602C392.289 758.482 392.212 758.388 392.109 758.32C392.007 758.25 391.879 758.215 391.724 758.215C391.562 758.215 391.428 758.254 391.321 758.332C391.216 758.409 391.137 758.508 391.084 758.63C391.032 758.75 391.007 758.874 391.009 759.002ZM393.494 760.5V757.915H393.941V758.29C393.983 758.218 394.04 758.151 394.114 758.087C394.189 758.024 394.279 757.973 394.384 757.935C394.49 757.897 394.613 757.877 394.751 757.877C394.915 757.877 395.065 757.91 395.201 757.975C395.34 758.04 395.45 758.142 395.531 758.28C395.615 758.417 395.656 758.593 395.656 758.81V760.5H395.194V758.855C395.194 758.653 395.14 758.504 395.034 758.407C394.929 758.309 394.792 758.26 394.624 758.26C394.507 758.26 394.398 758.279 394.296 758.317C394.195 758.354 394.112 758.411 394.049 758.487C393.985 758.562 393.954 758.657 393.954 758.772V760.5H393.494ZM397.532 761.305V757.915H397.992L397.997 758.365C398.027 758.312 398.065 758.256 398.112 758.197C398.16 758.139 398.219 758.085 398.287 758.035C398.357 757.985 398.438 757.944 398.529 757.912C398.623 757.881 398.729 757.865 398.847 757.865C399.054 757.865 399.235 757.912 399.392 758.007C399.55 758.101 399.674 758.244 399.762 758.437C399.85 758.631 399.894 758.876 399.894 759.172C399.894 759.469 399.851 759.72 399.764 759.925C399.679 760.128 399.556 760.283 399.394 760.39C399.233 760.497 399.038 760.55 398.809 760.55C398.694 760.55 398.592 760.533 398.502 760.5C398.414 760.468 398.336 760.427 398.269 760.375C398.204 760.322 398.149 760.265 398.104 760.205C398.061 760.145 398.025 760.087 397.997 760.032V761.305H397.532ZM398.722 760.19C398.935 760.19 399.109 760.109 399.244 759.947C399.379 759.784 399.447 759.531 399.447 759.187C399.447 758.892 399.385 758.658 399.262 758.485C399.139 758.312 398.959 758.225 398.722 758.225C398.482 758.225 398.3 758.314 398.177 758.492C398.054 758.669 397.992 758.901 397.992 759.187C397.992 759.372 398.019 759.541 398.074 759.692C398.129 759.844 398.211 759.965 398.319 760.055C398.428 760.145 398.562 760.19 398.722 760.19ZM400.501 760.5V757.915H400.941V758.412C400.984 758.289 401.045 758.187 401.123 758.107C401.201 758.026 401.291 757.965 401.391 757.925C401.492 757.885 401.597 757.865 401.706 757.865C401.744 757.865 401.781 757.867 401.818 757.873C401.855 757.877 401.883 757.886 401.903 757.897V758.345C401.878 758.333 401.846 758.326 401.806 758.322C401.767 758.317 401.735 758.315 401.708 758.315C401.605 758.308 401.508 758.315 401.418 758.335C401.328 758.353 401.249 758.386 401.181 758.432C401.112 758.479 401.058 758.541 401.018 758.617C400.98 758.692 400.961 758.784 400.961 758.892V760.5H400.501ZM403.408 760.55C403.17 760.55 402.961 760.499 402.783 760.397C402.605 760.294 402.466 760.143 402.368 759.945C402.27 759.747 402.221 759.504 402.221 759.217C402.221 758.947 402.266 758.711 402.358 758.507C402.45 758.304 402.584 758.147 402.761 758.035C402.939 757.922 403.155 757.865 403.408 757.865C403.646 757.865 403.853 757.917 404.028 758.022C404.205 758.126 404.341 758.278 404.438 758.48C404.535 758.682 404.583 758.927 404.583 759.217C404.583 759.481 404.538 759.712 404.448 759.912C404.36 760.112 404.228 760.269 404.053 760.382C403.88 760.494 403.665 760.55 403.408 760.55ZM403.408 760.185C403.563 760.185 403.694 760.146 403.801 760.067C403.907 759.989 403.988 759.877 404.043 759.73C404.098 759.583 404.126 759.409 404.126 759.207C404.126 759.022 404.101 758.857 404.053 758.71C404.005 758.562 403.927 758.444 403.821 758.357C403.716 758.271 403.578 758.227 403.408 758.227C403.251 758.227 403.119 758.267 403.011 758.345C402.902 758.422 402.82 758.533 402.763 758.68C402.708 758.827 402.681 759.002 402.681 759.207C402.681 759.389 402.706 759.554 402.756 759.702C402.806 759.851 402.884 759.968 402.991 760.055C403.097 760.142 403.236 760.185 403.408 760.185ZM406.218 757.865C406.403 757.865 406.57 757.901 406.718 757.972C406.866 758.042 406.987 758.142 407.081 758.272C407.176 758.402 407.235 758.556 407.258 758.732H406.848C406.833 758.642 406.798 758.56 406.743 758.485C406.69 758.41 406.619 758.35 406.531 758.305C406.442 758.26 406.339 758.237 406.221 758.237C405.999 758.237 405.819 758.317 405.681 758.477C405.542 758.637 405.473 758.882 405.473 759.212C405.473 759.511 405.536 759.75 405.663 759.93C405.791 760.108 405.98 760.197 406.228 760.197C406.346 760.197 406.449 760.175 406.536 760.13C406.624 760.083 406.695 760.022 406.748 759.947C406.801 759.871 406.836 759.789 406.851 759.702H407.253C407.231 759.876 407.173 760.026 407.078 760.152C406.983 760.279 406.861 760.377 406.713 760.447C406.566 760.516 406.401 760.55 406.218 760.55C405.986 760.55 405.781 760.499 405.601 760.397C405.422 760.296 405.282 760.146 405.181 759.947C405.079 759.749 405.028 759.506 405.028 759.217C405.028 758.947 405.074 758.712 405.166 758.51C405.259 758.307 405.394 758.148 405.571 758.035C405.749 757.922 405.965 757.865 406.218 757.865ZM408.213 759.315C408.213 759.478 408.24 759.627 408.293 759.76C408.348 759.892 408.431 759.997 408.541 760.075C408.653 760.153 408.792 760.192 408.958 760.192C409.123 760.192 409.265 760.154 409.383 760.077C409.503 760.001 409.58 759.89 409.613 759.745H410.051C410.019 759.92 409.949 760.067 409.841 760.188C409.733 760.307 409.602 760.398 409.448 760.46C409.295 760.52 409.135 760.55 408.968 760.55C408.727 760.55 408.514 760.498 408.331 760.392C408.148 760.287 408.004 760.137 407.901 759.94C407.798 759.743 407.746 759.507 407.746 759.232C407.746 758.961 407.793 758.722 407.886 758.517C407.979 758.312 408.114 758.152 408.291 758.037C408.469 757.922 408.683 757.865 408.933 757.865C409.177 757.865 409.383 757.917 409.551 758.022C409.719 758.127 409.847 758.276 409.933 758.467C410.022 758.657 410.066 758.883 410.066 759.145V759.315H408.213ZM408.216 759.002H409.621C409.621 758.854 409.596 758.721 409.546 758.602C409.496 758.482 409.419 758.388 409.316 758.32C409.214 758.25 409.086 758.215 408.931 758.215C408.769 758.215 408.635 758.254 408.528 758.332C408.423 758.409 408.344 758.508 408.291 758.63C408.239 758.75 408.214 758.874 408.216 759.002ZM411.599 760.55C411.419 760.55 411.251 760.523 411.096 760.467C410.943 760.411 410.815 760.323 410.714 760.205C410.612 760.085 410.548 759.932 410.521 759.747H410.941C410.965 759.849 411.006 759.934 411.066 760.002C411.128 760.069 411.205 760.12 411.296 760.155C411.388 760.188 411.488 760.205 411.596 760.205C411.77 760.205 411.91 760.172 412.016 760.107C412.123 760.042 412.176 759.942 412.176 759.807C412.176 759.712 412.148 759.637 412.091 759.58C412.036 759.522 411.95 759.479 411.834 759.452L411.299 759.32C411.09 759.27 410.924 759.192 410.799 759.085C410.674 758.978 410.611 758.829 410.611 758.637C410.61 758.486 410.645 758.352 410.719 758.237C410.792 758.122 410.902 758.032 411.049 757.965C411.195 757.898 411.378 757.865 411.596 757.865C411.876 757.865 412.102 757.928 412.274 758.055C412.447 758.18 412.537 758.364 412.544 758.607H412.136C412.12 758.484 412.064 758.387 411.969 758.315C411.875 758.242 411.75 758.205 411.591 758.205C411.426 758.205 411.292 758.238 411.189 758.305C411.085 758.37 411.034 758.472 411.034 758.61C411.034 758.702 411.07 758.774 411.144 758.827C411.217 758.879 411.325 758.922 411.469 758.957L411.986 759.088C412.106 759.119 412.205 759.161 412.281 759.212C412.36 759.264 412.421 759.322 412.466 759.385C412.513 759.448 412.545 759.515 412.564 759.585C412.584 759.653 412.594 759.719 412.594 759.782C412.594 759.941 412.554 760.077 412.474 760.192C412.395 760.306 412.282 760.394 412.134 760.457C411.987 760.519 411.809 760.55 411.599 760.55ZM414.113 760.55C413.933 760.55 413.766 760.523 413.611 760.467C413.458 760.411 413.33 760.323 413.228 760.205C413.127 760.085 413.063 759.932 413.036 759.747H413.456C413.479 759.849 413.521 759.934 413.581 760.002C413.643 760.069 413.719 760.12 413.811 760.155C413.903 760.188 414.003 760.205 414.111 760.205C414.284 760.205 414.424 760.172 414.531 760.107C414.638 760.042 414.691 759.942 414.691 759.807C414.691 759.712 414.663 759.637 414.606 759.58C414.551 759.522 414.465 759.479 414.348 759.452L413.813 759.32C413.605 759.27 413.438 759.192 413.313 759.085C413.188 758.978 413.126 758.829 413.126 758.637C413.124 758.486 413.16 758.352 413.233 758.237C413.307 758.122 413.417 758.032 413.563 757.965C413.71 757.898 413.893 757.865 414.111 757.865C414.391 757.865 414.617 757.928 414.788 758.055C414.962 758.18 415.052 758.364 415.058 758.607H414.651C414.634 758.484 414.578 758.387 414.483 758.315C414.39 758.242 414.264 758.205 414.106 758.205C413.941 758.205 413.807 758.238 413.703 758.305C413.6 758.37 413.548 758.472 413.548 758.61C413.548 758.702 413.585 758.774 413.658 758.827C413.732 758.879 413.84 758.922 413.983 758.957L414.501 759.088C414.621 759.119 414.719 759.161 414.796 759.212C414.874 759.264 414.936 759.322 414.981 759.385C415.028 759.448 415.06 759.515 415.078 759.585C415.098 759.653 415.108 759.719 415.108 759.782C415.108 759.941 415.068 760.077 414.988 760.192C414.91 760.306 414.797 760.394 414.648 760.457C414.502 760.519 414.323 760.55 414.113 760.55ZM416.085 759.315C416.085 759.478 416.111 759.627 416.165 759.76C416.22 759.892 416.302 759.997 416.412 760.075C416.524 760.153 416.663 760.192 416.83 760.192C416.995 760.192 417.136 760.154 417.255 760.077C417.375 760.001 417.451 759.89 417.485 759.745H417.922C417.89 759.92 417.82 760.067 417.712 760.188C417.604 760.307 417.473 760.398 417.32 760.46C417.166 760.52 417.006 760.55 416.84 760.55C416.598 760.55 416.385 760.498 416.202 760.392C416.019 760.287 415.875 760.137 415.772 759.94C415.669 759.743 415.617 759.507 415.617 759.232C415.617 758.961 415.664 758.722 415.757 758.517C415.85 758.312 415.985 758.152 416.162 758.037C416.34 757.922 416.555 757.865 416.805 757.865C417.048 757.865 417.254 757.917 417.422 758.022C417.59 758.127 417.718 758.276 417.805 758.467C417.893 758.657 417.937 758.883 417.937 759.145V759.315H416.085ZM416.087 759.002H417.492C417.492 758.854 417.467 758.721 417.417 758.602C417.367 758.482 417.29 758.388 417.187 758.32C417.085 758.25 416.957 758.215 416.802 758.215C416.64 758.215 416.506 758.254 416.4 758.332C416.295 758.409 416.215 758.508 416.162 758.63C416.11 758.75 416.085 758.874 416.087 759.002ZM419.504 760.55C419.169 760.55 418.904 760.435 418.707 760.205C418.51 759.975 418.412 759.639 418.412 759.197C418.412 758.929 418.451 758.695 418.529 758.495C418.609 758.295 418.728 758.14 418.884 758.03C419.041 757.92 419.236 757.865 419.469 757.865C419.593 757.865 419.702 757.881 419.797 757.912C419.894 757.944 419.977 757.984 420.047 758.032C420.117 758.081 420.174 758.131 420.217 758.182C420.262 758.234 420.295 758.282 420.317 758.325V756.785H420.782V760.5H420.429L420.379 759.97C420.363 760.02 420.336 760.078 420.299 760.145C420.263 760.21 420.211 760.274 420.144 760.337C420.078 760.399 419.992 760.45 419.887 760.49C419.784 760.53 419.656 760.55 419.504 760.55ZM419.587 760.195C419.849 760.195 420.035 760.116 420.147 759.957C420.26 759.797 420.317 759.537 420.317 759.175C420.315 758.973 420.289 758.802 420.239 758.66C420.191 758.518 420.114 758.411 420.009 758.337C419.906 758.262 419.769 758.225 419.597 758.225C419.384 758.225 419.21 758.301 419.077 758.452C418.944 758.604 418.877 758.845 418.877 759.175C418.877 759.498 418.937 759.749 419.057 759.927C419.179 760.106 419.355 760.195 419.587 760.195ZM421.438 760.5V759.91H421.988V760.5H421.438ZM344.115 764.31V763.885H346.85V764.31H345.748V767.5H345.283V764.31H344.115ZM347.351 767.5V763.785H347.801V765.295C347.845 765.223 347.903 765.157 347.976 765.095C348.05 765.032 348.139 764.981 348.244 764.942C348.349 764.902 348.47 764.882 348.609 764.882C348.777 764.882 348.93 764.914 349.066 764.977C349.203 765.039 349.311 765.127 349.391 765.242C349.471 765.357 349.511 765.494 349.511 765.652V767.5H349.049V765.745C349.049 765.59 348.995 765.471 348.889 765.387C348.784 765.302 348.646 765.26 348.476 765.26C348.361 765.26 348.253 765.279 348.151 765.317C348.05 765.354 347.967 765.411 347.904 765.487C347.842 765.562 347.811 765.658 347.811 765.775V767.5H347.351ZM350.562 766.315C350.562 766.478 350.589 766.627 350.642 766.76C350.697 766.892 350.78 766.997 350.89 767.075C351.001 767.153 351.14 767.192 351.307 767.192C351.472 767.192 351.614 767.154 351.732 767.077C351.852 767.001 351.929 766.89 351.962 766.745H352.4C352.368 766.92 352.298 767.067 352.19 767.188C352.081 767.307 351.95 767.398 351.797 767.46C351.644 767.52 351.484 767.55 351.317 767.55C351.075 767.55 350.863 767.498 350.68 767.392C350.496 767.287 350.353 767.137 350.25 766.94C350.146 766.743 350.095 766.507 350.095 766.232C350.095 765.961 350.141 765.722 350.235 765.517C350.328 765.312 350.463 765.152 350.64 765.037C350.818 764.922 351.032 764.865 351.282 764.865C351.525 764.865 351.731 764.917 351.9 765.022C352.068 765.127 352.195 765.276 352.282 765.467C352.37 765.657 352.415 765.883 352.415 766.145V766.315H350.562ZM350.565 766.002H351.97C351.97 765.854 351.945 765.721 351.895 765.602C351.845 765.482 351.768 765.388 351.665 765.32C351.563 765.25 351.435 765.215 351.28 765.215C351.118 765.215 350.984 765.254 350.877 765.332C350.772 765.409 350.693 765.508 350.64 765.63C350.588 765.75 350.563 765.874 350.565 766.002ZM355.481 765.252H354.898V766.86C354.898 766.952 354.908 767.019 354.926 767.062C354.946 767.104 354.978 767.131 355.023 767.142C355.07 767.154 355.133 767.16 355.213 767.16H355.496V767.47C355.464 767.482 355.416 767.492 355.351 767.5C355.288 767.508 355.208 767.513 355.113 767.513C354.935 767.513 354.797 767.488 354.698 767.44C354.6 767.392 354.531 767.32 354.491 767.225C354.453 767.13 354.433 767.013 354.433 766.875V765.252H354.013V764.915H354.446L354.558 764.162H354.898V764.912H355.481V765.252ZM357.104 767.55C356.866 767.55 356.658 767.499 356.479 767.397C356.301 767.294 356.163 767.143 356.064 766.945C355.966 766.747 355.917 766.504 355.917 766.217C355.917 765.947 355.963 765.711 356.054 765.507C356.146 765.304 356.28 765.147 356.457 765.035C356.635 764.922 356.851 764.865 357.104 764.865C357.343 764.865 357.549 764.917 357.724 765.022C357.901 765.126 358.038 765.278 358.134 765.48C358.231 765.682 358.279 765.927 358.279 766.217C358.279 766.481 358.234 766.712 358.144 766.912C358.056 767.112 357.924 767.269 357.749 767.382C357.576 767.494 357.361 767.55 357.104 767.55ZM357.104 767.185C357.259 767.185 357.39 767.146 357.497 767.067C357.604 766.989 357.684 766.877 357.739 766.73C357.794 766.583 357.822 766.409 357.822 766.207C357.822 766.022 357.798 765.857 357.749 765.71C357.701 765.562 357.624 765.444 357.517 765.357C357.412 765.271 357.274 765.227 357.104 765.227C356.948 765.227 356.815 765.267 356.707 765.345C356.599 765.422 356.516 765.533 356.459 765.68C356.404 765.827 356.377 766.002 356.377 766.207C356.377 766.389 356.402 766.554 356.452 766.702C356.502 766.851 356.58 766.968 356.687 767.055C356.794 767.142 356.933 767.185 357.104 767.185ZM360.115 765.252H359.532V766.86C359.532 766.952 359.541 767.019 359.56 767.062C359.58 767.104 359.612 767.131 359.657 767.142C359.704 767.154 359.767 767.16 359.847 767.16H360.13V767.47C360.098 767.482 360.05 767.492 359.985 767.5C359.921 767.508 359.842 767.513 359.747 767.513C359.569 767.513 359.431 767.488 359.332 767.44C359.234 767.392 359.165 767.32 359.125 767.225C359.086 767.13 359.067 767.013 359.067 766.875V765.252H358.647V764.915H359.08L359.192 764.162H359.532V764.912H360.115V765.252ZM361.474 767.55C361.308 767.55 361.16 767.521 361.032 767.462C360.904 767.402 360.803 767.317 360.729 767.205C360.658 767.093 360.622 766.958 360.622 766.8C360.622 766.513 360.722 766.3 360.922 766.16C361.122 766.02 361.443 765.945 361.884 765.935L362.347 765.922V765.72C362.347 765.562 362.299 765.437 362.204 765.345C362.109 765.252 361.962 765.205 361.762 765.205C361.614 765.207 361.483 765.242 361.369 765.31C361.258 765.378 361.185 765.49 361.152 765.645H360.744C360.754 765.477 360.802 765.335 360.887 765.22C360.972 765.103 361.09 765.015 361.242 764.955C361.395 764.895 361.576 764.865 361.784 764.865C362.009 764.865 362.196 764.897 362.344 764.96C362.494 765.023 362.606 765.117 362.679 765.24C362.754 765.363 362.792 765.515 362.792 765.695V767.5H362.397L362.364 767.015C362.264 767.217 362.137 767.357 361.982 767.435C361.829 767.512 361.659 767.55 361.474 767.55ZM361.614 767.217C361.701 767.217 361.787 767.202 361.872 767.17C361.959 767.138 362.038 767.096 362.109 767.042C362.181 766.987 362.238 766.927 362.279 766.86C362.323 766.792 362.345 766.722 362.347 766.65V766.207L361.962 766.215C361.765 766.218 361.6 766.238 361.467 766.275C361.335 766.312 361.236 766.369 361.169 766.447C361.104 766.526 361.072 766.628 361.072 766.755C361.072 766.9 361.122 767.013 361.222 767.095C361.324 767.177 361.454 767.217 361.614 767.217ZM364.234 767.533C364.094 767.533 363.981 767.513 363.894 767.475C363.809 767.437 363.743 767.385 363.697 767.32C363.652 767.255 363.621 767.181 363.604 767.097C363.589 767.012 363.582 766.925 363.582 766.835V763.785H364.037V766.79C364.037 766.92 364.062 767.017 364.112 767.082C364.163 767.147 364.235 767.183 364.327 767.19L364.467 767.192V767.492C364.428 767.504 364.388 767.513 364.347 767.52C364.305 767.528 364.268 767.533 364.234 767.533ZM366.938 767.55C366.772 767.55 366.624 767.521 366.496 767.462C366.367 767.402 366.267 767.317 366.193 767.205C366.122 767.093 366.086 766.958 366.086 766.8C366.086 766.513 366.186 766.3 366.386 766.16C366.586 766.02 366.907 765.945 367.348 765.935L367.811 765.922V765.72C367.811 765.562 367.763 765.437 367.668 765.345C367.573 765.252 367.426 765.205 367.226 765.205C367.077 765.207 366.947 765.242 366.833 765.31C366.722 765.378 366.649 765.49 366.616 765.645H366.208C366.218 765.477 366.266 765.335 366.351 765.22C366.436 765.103 366.554 765.015 366.706 764.955C366.859 764.895 367.04 764.865 367.248 764.865C367.473 764.865 367.66 764.897 367.808 764.96C367.958 765.023 368.07 765.117 368.143 765.24C368.218 765.363 368.256 765.515 368.256 765.695V767.5H367.861L367.828 767.015C367.728 767.217 367.601 767.357 367.446 767.435C367.292 767.512 367.123 767.55 366.938 767.55ZM367.078 767.217C367.165 767.217 367.251 767.202 367.336 767.17C367.422 767.138 367.502 767.096 367.573 767.042C367.645 766.987 367.702 766.927 367.743 766.86C367.787 766.792 367.809 766.722 367.811 766.65V766.207L367.426 766.215C367.229 766.218 367.064 766.238 366.931 766.275C366.799 766.312 366.7 766.369 366.633 766.447C366.568 766.526 366.536 766.628 366.536 766.755C366.536 766.9 366.586 767.013 366.686 767.095C366.787 767.177 366.918 767.217 367.078 767.217ZM369.046 767.5V764.915H369.491V765.29C369.562 765.177 369.661 765.077 369.786 764.992C369.911 764.907 370.073 764.865 370.273 764.865C370.366 764.865 370.461 764.881 370.558 764.912C370.656 764.944 370.746 764.992 370.828 765.055C370.91 765.118 370.973 765.196 371.018 765.287C371.098 765.161 371.206 765.059 371.343 764.982C371.48 764.904 371.634 764.865 371.806 764.865C371.896 764.865 371.99 764.879 372.088 764.907C372.186 764.934 372.277 764.982 372.361 765.052C372.446 765.121 372.515 765.217 372.568 765.34C372.621 765.462 372.648 765.618 372.648 765.81V767.5H372.183V765.855C372.183 765.698 372.158 765.577 372.108 765.492C372.058 765.406 371.992 765.345 371.911 765.31C371.831 765.275 371.745 765.257 371.653 765.257C371.573 765.257 371.488 765.273 371.398 765.305C371.308 765.337 371.231 765.39 371.168 765.465C371.105 765.54 371.073 765.642 371.073 765.772V767.5H370.613V765.72C370.613 765.618 370.586 765.533 370.531 765.465C370.477 765.397 370.41 765.345 370.328 765.31C370.248 765.275 370.168 765.257 370.088 765.257C370 765.257 369.911 765.275 369.821 765.31C369.732 765.345 369.657 765.401 369.596 765.477C369.536 765.552 369.506 765.651 369.506 765.772V767.5H369.046ZM374.399 767.55C374.161 767.55 373.953 767.499 373.774 767.397C373.596 767.294 373.458 767.143 373.359 766.945C373.261 766.747 373.212 766.504 373.212 766.217C373.212 765.947 373.258 765.711 373.349 765.507C373.441 765.304 373.575 765.147 373.752 765.035C373.93 764.922 374.146 764.865 374.399 764.865C374.638 764.865 374.844 764.917 375.019 765.022C375.196 765.126 375.333 765.278 375.429 765.48C375.526 765.682 375.574 765.927 375.574 766.217C375.574 766.481 375.529 766.712 375.439 766.912C375.351 767.112 375.219 767.269 375.044 767.382C374.871 767.494 374.656 767.55 374.399 767.55ZM374.399 767.185C374.554 767.185 374.685 767.146 374.792 767.067C374.898 766.989 374.979 766.877 375.034 766.73C375.089 766.583 375.117 766.409 375.117 766.207C375.117 766.022 375.093 765.857 375.044 765.71C374.996 765.562 374.918 765.444 374.812 765.357C374.707 765.271 374.569 765.227 374.399 765.227C374.243 765.227 374.11 765.267 374.002 765.345C373.893 765.422 373.811 765.533 373.754 765.68C373.699 765.827 373.672 766.002 373.672 766.207C373.672 766.389 373.697 766.554 373.747 766.702C373.797 766.851 373.875 766.968 373.982 767.055C374.088 767.142 374.228 767.185 374.399 767.185ZM377.085 767.55C376.95 767.548 376.823 767.529 376.703 767.492C376.585 767.454 376.48 767.398 376.388 767.325C376.296 767.252 376.224 767.161 376.17 767.052C376.119 766.942 376.093 766.815 376.093 766.67V764.915H376.555V766.622C376.555 766.791 376.607 766.927 376.71 767.032C376.815 767.137 376.973 767.19 377.183 767.19C377.373 767.19 377.525 767.141 377.64 767.042C377.757 766.942 377.815 766.794 377.815 766.597V764.915H378.275V767.5H377.908L377.86 767.005C377.829 767.135 377.775 767.24 377.698 767.32C377.623 767.4 377.532 767.459 377.425 767.497C377.32 767.534 377.207 767.552 377.085 767.55ZM379.031 767.5V764.915H379.478V765.29C379.52 765.218 379.578 765.151 379.651 765.087C379.726 765.024 379.816 764.973 379.921 764.935C380.028 764.897 380.15 764.877 380.288 764.877C380.452 764.877 380.602 764.91 380.738 764.975C380.877 765.04 380.987 765.142 381.068 765.28C381.152 765.417 381.193 765.593 381.193 765.81V767.5H380.731V765.855C380.731 765.653 380.678 765.504 380.571 765.407C380.466 765.309 380.329 765.26 380.161 765.26C380.044 765.26 379.935 765.279 379.833 765.317C379.732 765.354 379.649 765.411 379.586 765.487C379.523 765.562 379.491 765.657 379.491 765.772V767.5H379.031ZM383.108 765.252H382.525V766.86C382.525 766.952 382.535 767.019 382.553 767.062C382.573 767.104 382.605 767.131 382.65 767.142C382.697 767.154 382.76 767.16 382.84 767.16H383.123V767.47C383.091 767.482 383.043 767.492 382.978 767.5C382.915 767.508 382.835 767.513 382.74 767.513C382.562 767.513 382.424 767.488 382.325 767.44C382.227 767.392 382.158 767.32 382.118 767.225C382.08 767.13 382.06 767.013 382.06 766.875V765.252H381.64V764.915H382.073L382.185 764.162H382.525V764.912H383.108V765.252ZM385.794 767.55C385.459 767.55 385.193 767.435 384.996 767.205C384.799 766.975 384.701 766.639 384.701 766.197C384.701 765.929 384.74 765.695 384.819 765.495C384.899 765.295 385.017 765.14 385.174 765.03C385.33 764.92 385.525 764.865 385.759 764.865C385.882 764.865 385.991 764.881 386.086 764.912C386.183 764.944 386.266 764.984 386.336 765.032C386.406 765.081 386.463 765.131 386.506 765.182C386.551 765.234 386.584 765.282 386.606 765.325V763.785H387.071V767.5H386.719L386.669 766.97C386.652 767.02 386.625 767.078 386.589 767.145C386.552 767.21 386.5 767.274 386.434 767.337C386.367 767.399 386.281 767.45 386.176 767.49C386.073 767.53 385.945 767.55 385.794 767.55ZM385.876 767.195C386.138 767.195 386.324 767.116 386.436 766.957C386.549 766.797 386.606 766.537 386.606 766.175C386.604 765.973 386.579 765.802 386.529 765.66C386.48 765.518 386.404 765.411 386.299 765.337C386.195 765.262 386.058 765.225 385.886 765.225C385.673 765.225 385.499 765.301 385.366 765.452C385.233 765.604 385.166 765.845 385.166 766.175C385.166 766.498 385.226 766.749 385.346 766.927C385.468 767.106 385.644 767.195 385.876 767.195ZM388.165 766.315C388.165 766.478 388.191 766.627 388.245 766.76C388.3 766.892 388.382 766.997 388.492 767.075C388.604 767.153 388.743 767.192 388.91 767.192C389.075 767.192 389.216 767.154 389.335 767.077C389.455 767.001 389.531 766.89 389.565 766.745H390.002C389.97 766.92 389.9 767.067 389.792 767.188C389.684 767.307 389.553 767.398 389.4 767.46C389.246 767.52 389.086 767.55 388.92 767.55C388.678 767.55 388.465 767.498 388.282 767.392C388.099 767.287 387.955 767.137 387.852 766.94C387.749 766.743 387.697 766.507 387.697 766.232C387.697 765.961 387.744 765.722 387.837 765.517C387.93 765.312 388.065 765.152 388.242 765.037C388.42 764.922 388.635 764.865 388.885 764.865C389.128 764.865 389.334 764.917 389.502 765.022C389.67 765.127 389.798 765.276 389.885 765.467C389.973 765.657 390.017 765.883 390.017 766.145V766.315H388.165ZM388.167 766.002H389.572C389.572 765.854 389.547 765.721 389.497 765.602C389.447 765.482 389.37 765.388 389.267 765.32C389.165 765.25 389.037 765.215 388.882 765.215C388.72 765.215 388.586 765.254 388.48 765.332C388.375 765.409 388.295 765.508 388.242 765.63C388.19 765.75 388.165 765.874 388.167 766.002ZM391.585 767.55C391.25 767.55 390.984 767.435 390.787 767.205C390.59 766.975 390.492 766.639 390.492 766.197C390.492 765.929 390.531 765.695 390.61 765.495C390.69 765.295 390.808 765.14 390.965 765.03C391.121 764.92 391.316 764.865 391.55 764.865C391.673 764.865 391.782 764.881 391.877 764.912C391.974 764.944 392.057 764.984 392.127 765.032C392.197 765.081 392.254 765.131 392.297 765.182C392.342 765.234 392.375 765.282 392.397 765.325V763.785H392.862V767.5H392.51L392.46 766.97C392.443 767.02 392.416 767.078 392.38 767.145C392.343 767.21 392.291 767.274 392.225 767.337C392.158 767.399 392.072 767.45 391.967 767.49C391.864 767.53 391.736 767.55 391.585 767.55ZM391.667 767.195C391.929 767.195 392.115 767.116 392.227 766.957C392.34 766.797 392.397 766.537 392.397 766.175C392.395 765.973 392.37 765.802 392.32 765.66C392.271 765.518 392.195 765.411 392.09 765.337C391.986 765.262 391.849 765.225 391.677 765.225C391.464 765.225 391.29 765.301 391.157 765.452C391.024 765.604 390.957 765.845 390.957 766.175C390.957 766.498 391.017 766.749 391.137 766.927C391.259 767.106 391.435 767.195 391.667 767.195ZM394.576 767.55C394.441 767.548 394.313 767.529 394.193 767.492C394.075 767.454 393.97 767.398 393.878 767.325C393.786 767.252 393.714 767.161 393.661 767.052C393.609 766.942 393.583 766.815 393.583 766.67V764.915H394.046V766.622C394.046 766.791 394.097 766.927 394.201 767.032C394.306 767.137 394.463 767.19 394.673 767.19C394.863 767.19 395.016 767.141 395.131 767.042C395.247 766.942 395.306 766.794 395.306 766.597V764.915H395.766V767.5H395.398L395.351 767.005C395.319 767.135 395.265 767.24 395.188 767.32C395.113 767.4 395.022 767.459 394.916 767.497C394.811 767.534 394.697 767.552 394.576 767.55ZM397.517 764.865C397.702 764.865 397.869 764.901 398.017 764.972C398.165 765.042 398.286 765.142 398.379 765.272C398.474 765.402 398.534 765.556 398.557 765.732H398.147C398.132 765.642 398.097 765.56 398.042 765.485C397.989 765.41 397.918 765.35 397.829 765.305C397.741 765.26 397.638 765.237 397.519 765.237C397.298 765.237 397.118 765.317 396.979 765.477C396.841 765.637 396.772 765.882 396.772 766.212C396.772 766.511 396.835 766.75 396.962 766.93C397.09 767.108 397.279 767.197 397.527 767.197C397.645 767.197 397.748 767.175 397.834 767.13C397.923 767.083 397.994 767.022 398.047 766.947C398.1 766.871 398.134 766.789 398.149 766.702H398.552C398.53 766.876 398.472 767.026 398.377 767.152C398.282 767.279 398.16 767.377 398.012 767.447C397.865 767.516 397.7 767.55 397.517 767.55C397.285 767.55 397.079 767.499 396.899 767.397C396.721 767.296 396.581 767.146 396.479 766.947C396.378 766.749 396.327 766.506 396.327 766.217C396.327 765.947 396.373 765.712 396.464 765.51C396.558 765.307 396.693 765.148 396.869 765.035C397.048 764.922 397.264 764.865 397.517 764.865ZM400.413 765.252H399.83V766.86C399.83 766.952 399.839 767.019 399.858 767.062C399.878 767.104 399.91 767.131 399.955 767.142C400.002 767.154 400.065 767.16 400.145 767.16H400.428V767.47C400.396 767.482 400.348 767.492 400.283 767.5C400.219 767.508 400.14 767.513 400.045 767.513C399.867 767.513 399.728 767.488 399.63 767.44C399.532 767.392 399.463 767.32 399.423 767.225C399.384 767.13 399.365 767.013 399.365 766.875V765.252H398.945V764.915H399.378L399.49 764.162H399.83V764.912H400.413V765.252ZM401.338 766.315C401.338 766.478 401.365 766.627 401.418 766.76C401.473 766.892 401.556 766.997 401.666 767.075C401.778 767.153 401.917 767.192 402.083 767.192C402.248 767.192 402.39 767.154 402.508 767.077C402.628 767.001 402.705 766.89 402.738 766.745H403.176C403.144 766.92 403.074 767.067 402.966 767.188C402.858 767.307 402.727 767.398 402.573 767.46C402.42 767.52 402.26 767.55 402.093 767.55C401.852 767.55 401.639 767.498 401.456 767.392C401.273 767.287 401.129 767.137 401.026 766.94C400.923 766.743 400.871 766.507 400.871 766.232C400.871 765.961 400.918 765.722 401.011 765.517C401.104 765.312 401.239 765.152 401.416 765.037C401.594 764.922 401.808 764.865 402.058 764.865C402.302 764.865 402.508 764.917 402.676 765.022C402.844 765.127 402.972 765.276 403.058 765.467C403.147 765.657 403.191 765.883 403.191 766.145V766.315H401.338ZM401.341 766.002H402.746C402.746 765.854 402.721 765.721 402.671 765.602C402.621 765.482 402.544 765.388 402.441 765.32C402.339 765.25 402.211 765.215 402.056 765.215C401.894 765.215 401.76 765.254 401.653 765.332C401.548 765.409 401.469 765.508 401.416 765.63C401.364 765.75 401.339 765.874 401.341 766.002ZM404.758 767.55C404.423 767.55 404.158 767.435 403.961 767.205C403.764 766.975 403.666 766.639 403.666 766.197C403.666 765.929 403.705 765.695 403.783 765.495C403.863 765.295 403.982 765.14 404.138 765.03C404.295 764.92 404.49 764.865 404.723 764.865C404.847 764.865 404.956 764.881 405.051 764.912C405.148 764.944 405.231 764.984 405.301 765.032C405.371 765.081 405.428 765.131 405.471 765.182C405.516 765.234 405.549 765.282 405.571 765.325V763.785H406.036V767.5H405.683L405.633 766.97C405.617 767.02 405.59 767.078 405.553 767.145C405.517 767.21 405.465 767.274 405.398 767.337C405.332 767.399 405.246 767.45 405.141 767.49C405.038 767.53 404.91 767.55 404.758 767.55ZM404.841 767.195C405.103 767.195 405.289 767.116 405.401 766.957C405.514 766.797 405.571 766.537 405.571 766.175C405.569 765.973 405.543 765.802 405.493 765.66C405.445 765.518 405.368 765.411 405.263 765.337C405.16 765.262 405.023 765.225 404.851 765.225C404.638 765.225 404.464 765.301 404.331 765.452C404.198 765.604 404.131 765.845 404.131 766.175C404.131 766.498 404.191 766.749 404.311 766.927C404.433 767.106 404.609 767.195 404.841 767.195ZM409.412 764.915V765.252H408.784V767.5H408.319V765.252H407.774V764.915H408.319V764.515C408.319 764.31 408.372 764.154 408.477 764.047C408.582 763.939 408.739 763.885 408.947 763.885H409.434L409.437 764.212H409.049C408.944 764.212 408.873 764.241 408.834 764.297C408.796 764.354 408.777 764.44 408.777 764.555V764.915H409.412ZM409.983 767.5V764.915H410.423V765.412C410.466 765.289 410.527 765.187 410.606 765.107C410.684 765.026 410.773 764.965 410.873 764.925C410.975 764.885 411.08 764.865 411.188 764.865C411.226 764.865 411.264 764.867 411.301 764.873C411.337 764.877 411.366 764.886 411.386 764.897V765.345C411.361 765.333 411.328 765.326 411.288 765.322C411.25 765.317 411.217 765.315 411.191 765.315C411.087 765.308 410.991 765.315 410.901 765.335C410.811 765.353 410.731 765.386 410.663 765.432C410.595 765.479 410.541 765.541 410.501 765.617C410.462 765.692 410.443 765.784 410.443 765.892V767.5H409.983ZM412.89 767.55C412.652 767.55 412.444 767.499 412.265 767.397C412.087 767.294 411.949 767.143 411.85 766.945C411.752 766.747 411.703 766.504 411.703 766.217C411.703 765.947 411.749 765.711 411.84 765.507C411.932 765.304 412.066 765.147 412.243 765.035C412.421 764.922 412.637 764.865 412.89 764.865C413.129 764.865 413.335 764.917 413.51 765.022C413.687 765.126 413.824 765.278 413.92 765.48C414.017 765.682 414.065 765.927 414.065 766.217C414.065 766.481 414.02 766.712 413.93 766.912C413.842 767.112 413.71 767.269 413.535 767.382C413.362 767.494 413.147 767.55 412.89 767.55ZM412.89 767.185C413.045 767.185 413.176 767.146 413.283 767.067C413.39 766.989 413.47 766.877 413.525 766.73C413.58 766.583 413.608 766.409 413.608 766.207C413.608 766.022 413.584 765.857 413.535 765.71C413.487 765.562 413.41 765.444 413.303 765.357C413.198 765.271 413.06 765.227 412.89 765.227C412.734 765.227 412.601 765.267 412.493 765.345C412.385 765.422 412.302 765.533 412.245 765.68C412.19 765.827 412.163 766.002 412.163 766.207C412.163 766.389 412.188 766.554 412.238 766.702C412.288 766.851 412.366 766.968 412.473 767.055C412.58 767.142 412.719 767.185 412.89 767.185ZM414.671 767.5V764.915H415.116V765.29C415.187 765.177 415.286 765.077 415.411 764.992C415.536 764.907 415.698 764.865 415.898 764.865C415.991 764.865 416.086 764.881 416.183 764.912C416.281 764.944 416.371 764.992 416.453 765.055C416.535 765.118 416.598 765.196 416.643 765.287C416.723 765.161 416.831 765.059 416.968 764.982C417.105 764.904 417.259 764.865 417.431 764.865C417.521 764.865 417.615 764.879 417.713 764.907C417.811 764.934 417.902 764.982 417.986 765.052C418.071 765.121 418.14 765.217 418.193 765.34C418.246 765.462 418.273 765.618 418.273 765.81V767.5H417.808V765.855C417.808 765.698 417.783 765.577 417.733 765.492C417.683 765.406 417.617 765.345 417.536 765.31C417.456 765.275 417.37 765.257 417.278 765.257C417.198 765.257 417.113 765.273 417.023 765.305C416.933 765.337 416.856 765.39 416.793 765.465C416.73 765.54 416.698 765.642 416.698 765.772V767.5H416.238V765.72C416.238 765.618 416.211 765.533 416.156 765.465C416.102 765.397 416.035 765.345 415.953 765.31C415.873 765.275 415.793 765.257 415.713 765.257C415.625 765.257 415.536 765.275 415.446 765.31C415.357 765.345 415.282 765.401 415.221 765.477C415.161 765.552 415.131 765.651 415.131 765.772V767.5H414.671ZM420.37 768.325C420.218 768.325 420.114 768.314 420.057 768.293C420.001 768.271 419.972 768.26 419.972 768.26V767.96L420.235 767.965C420.332 767.968 420.412 767.962 420.475 767.945C420.538 767.928 420.589 767.906 420.627 767.878C420.666 767.849 420.695 767.818 420.715 767.783C420.737 767.748 420.754 767.714 420.767 767.683L420.857 767.437L419.847 764.915H420.315L421.077 766.91L421.835 764.915H422.287L421.197 767.695C421.131 767.858 421.056 767.986 420.972 768.078C420.891 768.169 420.799 768.233 420.697 768.27C420.597 768.307 420.488 768.325 420.37 768.325ZM423.716 767.55C423.477 767.55 423.269 767.499 423.091 767.397C422.912 767.294 422.774 767.143 422.676 766.945C422.577 766.747 422.528 766.504 422.528 766.217C422.528 765.947 422.574 765.711 422.666 765.507C422.757 765.304 422.891 765.147 423.068 765.035C423.246 764.922 423.462 764.865 423.716 764.865C423.954 764.865 424.161 764.917 424.336 765.022C424.512 765.126 424.649 765.278 424.746 765.48C424.842 765.682 424.891 765.927 424.891 766.217C424.891 766.481 424.846 766.712 424.756 766.912C424.667 767.112 424.536 767.269 424.361 767.382C424.187 767.494 423.972 767.55 423.716 767.55ZM423.716 767.185C423.871 767.185 424.001 767.146 424.108 767.067C424.215 766.989 424.296 766.877 424.351 766.73C424.406 766.583 424.433 766.409 424.433 766.207C424.433 766.022 424.409 765.857 424.361 765.71C424.312 765.562 424.235 765.444 424.128 765.357C424.023 765.271 423.886 765.227 423.716 765.227C423.559 765.227 423.426 765.267 423.318 765.345C423.21 765.422 423.127 765.533 423.071 765.68C423.016 765.827 422.988 766.002 422.988 766.207C422.988 766.389 423.013 766.554 423.063 766.702C423.113 766.851 423.191 766.968 423.298 767.055C423.405 767.142 423.544 767.185 423.716 767.185ZM426.402 767.55C426.267 767.548 426.139 767.529 426.019 767.492C425.901 767.454 425.796 767.398 425.704 767.325C425.613 767.252 425.54 767.161 425.487 767.052C425.435 766.942 425.409 766.815 425.409 766.67V764.915H425.872V766.622C425.872 766.791 425.924 766.927 426.027 767.032C426.132 767.137 426.289 767.19 426.499 767.19C426.689 767.19 426.842 767.141 426.957 767.042C427.074 766.942 427.132 766.794 427.132 766.597V764.915H427.592V767.5H427.224L427.177 767.005C427.145 767.135 427.091 767.24 427.014 767.32C426.939 767.4 426.849 767.459 426.742 767.497C426.637 767.534 426.524 767.552 426.402 767.55ZM428.347 767.5V764.915H428.787V765.412C428.831 765.289 428.892 765.187 428.97 765.107C429.048 765.026 429.137 764.965 429.237 764.925C429.339 764.885 429.444 764.865 429.552 764.865C429.591 764.865 429.628 764.867 429.665 764.873C429.702 764.877 429.73 764.886 429.75 764.897V765.345C429.725 765.333 429.692 765.326 429.652 765.322C429.614 765.317 429.582 765.315 429.555 765.315C429.452 765.308 429.355 765.315 429.265 765.335C429.175 765.353 429.096 765.386 429.027 765.432C428.959 765.479 428.905 765.541 428.865 765.617C428.827 765.692 428.807 765.784 428.807 765.892V767.5H428.347ZM345.098 774.55C344.931 774.55 344.783 774.521 344.655 774.462C344.527 774.402 344.426 774.317 344.353 774.205C344.281 774.093 344.245 773.958 344.245 773.8C344.245 773.513 344.345 773.3 344.545 773.16C344.745 773.02 345.066 772.945 345.508 772.935L345.97 772.922V772.72C345.97 772.562 345.923 772.437 345.828 772.345C345.733 772.252 345.585 772.205 345.385 772.205C345.237 772.207 345.106 772.242 344.993 772.31C344.881 772.378 344.808 772.49 344.775 772.645H344.367C344.378 772.477 344.425 772.335 344.51 772.22C344.595 772.103 344.713 772.015 344.865 771.955C345.018 771.895 345.199 771.865 345.408 771.865C345.633 771.865 345.819 771.897 345.968 771.96C346.118 772.023 346.229 772.117 346.303 772.24C346.378 772.363 346.415 772.515 346.415 772.695V774.5H346.02L345.988 774.015C345.888 774.217 345.76 774.357 345.605 774.435C345.452 774.512 345.283 774.55 345.098 774.55ZM345.238 774.217C345.324 774.217 345.41 774.202 345.495 774.17C345.582 774.138 345.661 774.096 345.733 774.042C345.804 773.987 345.861 773.927 345.903 773.86C345.946 773.792 345.968 773.722 345.97 773.65V773.207L345.585 773.215C345.388 773.218 345.223 773.238 345.09 773.275C344.958 773.312 344.859 773.369 344.793 773.447C344.728 773.526 344.695 773.628 344.695 773.755C344.695 773.9 344.745 774.013 344.845 774.095C344.947 774.177 345.078 774.217 345.238 774.217ZM348.235 771.865C348.42 771.865 348.586 771.901 348.735 771.972C348.883 772.042 349.004 772.142 349.097 772.272C349.192 772.402 349.251 772.556 349.275 772.732H348.865C348.85 772.642 348.815 772.56 348.76 772.485C348.706 772.41 348.636 772.35 348.547 772.305C348.459 772.26 348.356 772.237 348.237 772.237C348.016 772.237 347.836 772.317 347.697 772.477C347.559 772.637 347.49 772.882 347.49 773.212C347.49 773.511 347.553 773.75 347.68 773.93C347.808 774.108 347.996 774.197 348.245 774.197C348.363 774.197 348.466 774.175 348.552 774.13C348.641 774.083 348.711 774.022 348.765 773.947C348.818 773.871 348.852 773.789 348.867 773.702H349.27C349.248 773.876 349.19 774.026 349.095 774.152C349 774.279 348.878 774.377 348.73 774.447C348.583 774.516 348.418 774.55 348.235 774.55C348.003 774.55 347.797 774.499 347.617 774.397C347.439 774.296 347.299 774.146 347.197 773.947C347.096 773.749 347.045 773.506 347.045 773.217C347.045 772.947 347.091 772.712 347.182 772.51C347.276 772.307 347.411 772.148 347.587 772.035C347.766 771.922 347.981 771.865 348.235 771.865ZM350.93 771.865C351.115 771.865 351.282 771.901 351.43 771.972C351.578 772.042 351.699 772.142 351.793 772.272C351.888 772.402 351.947 772.556 351.97 772.732H351.56C351.545 772.642 351.51 772.56 351.455 772.485C351.402 772.41 351.331 772.35 351.243 772.305C351.154 772.26 351.051 772.237 350.933 772.237C350.711 772.237 350.531 772.317 350.393 772.477C350.254 772.637 350.185 772.882 350.185 773.212C350.185 773.511 350.248 773.75 350.375 773.93C350.503 774.108 350.692 774.197 350.94 774.197C351.058 774.197 351.161 774.175 351.248 774.13C351.336 774.083 351.407 774.022 351.46 773.947C351.513 773.871 351.548 773.789 351.563 773.702H351.965C351.943 773.876 351.885 774.026 351.79 774.152C351.695 774.279 351.573 774.377 351.425 774.447C351.278 774.516 351.113 774.55 350.93 774.55C350.698 774.55 350.493 774.499 350.313 774.397C350.134 774.296 349.994 774.146 349.893 773.947C349.791 773.749 349.74 773.506 349.74 773.217C349.74 772.947 349.786 772.712 349.878 772.51C349.971 772.307 350.106 772.148 350.283 772.035C350.461 771.922 350.677 771.865 350.93 771.865ZM353.623 774.55C353.385 774.55 353.176 774.499 352.998 774.397C352.82 774.294 352.681 774.143 352.583 773.945C352.485 773.747 352.435 773.504 352.435 773.217C352.435 772.947 352.481 772.711 352.573 772.507C352.665 772.304 352.799 772.147 352.975 772.035C353.154 771.922 353.37 771.865 353.623 771.865C353.861 771.865 354.068 771.917 354.243 772.022C354.42 772.126 354.556 772.278 354.653 772.48C354.75 772.682 354.798 772.927 354.798 773.217C354.798 773.481 354.753 773.712 354.663 773.912C354.575 774.112 354.443 774.269 354.268 774.382C354.095 774.494 353.88 774.55 353.623 774.55ZM353.623 774.185C353.778 774.185 353.909 774.146 354.015 774.067C354.122 773.989 354.203 773.877 354.258 773.73C354.313 773.583 354.34 773.409 354.34 773.207C354.34 773.022 354.316 772.857 354.268 772.71C354.22 772.562 354.142 772.444 354.035 772.357C353.93 772.271 353.793 772.227 353.623 772.227C353.466 772.227 353.334 772.267 353.225 772.345C353.117 772.422 353.035 772.533 352.978 772.68C352.923 772.827 352.895 773.002 352.895 773.207C352.895 773.389 352.92 773.554 352.97 773.702C353.02 773.851 353.099 773.968 353.205 774.055C353.312 774.142 353.451 774.185 353.623 774.185ZM356.309 774.55C356.174 774.548 356.047 774.529 355.927 774.492C355.808 774.454 355.703 774.398 355.612 774.325C355.52 774.252 355.447 774.161 355.394 774.052C355.342 773.942 355.317 773.815 355.317 773.67V771.915H355.779V773.622C355.779 773.791 355.831 773.927 355.934 774.032C356.039 774.137 356.197 774.19 356.407 774.19C356.597 774.19 356.749 774.141 356.864 774.042C356.981 773.942 357.039 773.794 357.039 773.597V771.915H357.499V774.5H357.132L357.084 774.005C357.052 774.135 356.998 774.24 356.922 774.32C356.847 774.4 356.756 774.459 356.649 774.497C356.544 774.534 356.431 774.552 356.309 774.55ZM358.255 774.5V771.915H358.702V772.29C358.744 772.218 358.801 772.151 358.875 772.087C358.95 772.024 359.04 771.973 359.145 771.935C359.251 771.897 359.374 771.877 359.512 771.877C359.675 771.877 359.825 771.91 359.962 771.975C360.1 772.04 360.21 772.142 360.292 772.28C360.375 772.417 360.417 772.593 360.417 772.81V774.5H359.955V772.855C359.955 772.653 359.901 772.504 359.795 772.407C359.69 772.309 359.553 772.26 359.385 772.26C359.268 772.26 359.159 772.279 359.057 772.317C358.955 772.354 358.873 772.411 358.81 772.487C358.746 772.562 358.715 772.657 358.715 772.772V774.5H358.255ZM362.332 772.252H361.749V773.86C361.749 773.952 361.758 774.019 361.777 774.062C361.797 774.104 361.829 774.131 361.874 774.142C361.921 774.154 361.984 774.16 362.064 774.16H362.347V774.47C362.315 774.482 362.267 774.492 362.202 774.5C362.138 774.508 362.059 774.513 361.964 774.513C361.786 774.513 361.647 774.488 361.549 774.44C361.451 774.392 361.382 774.32 361.342 774.225C361.303 774.13 361.284 774.013 361.284 773.875V772.252H360.864V771.915H361.297L361.409 771.162H361.749V771.912H362.332V772.252ZM364.648 771.915V774.5H364.201V771.915H364.648ZM364.658 770.887V771.367H364.186V770.887H364.658ZM366.379 774.55C366.199 774.55 366.032 774.523 365.877 774.467C365.723 774.411 365.596 774.323 365.494 774.205C365.392 774.085 365.328 773.932 365.302 773.747H365.722C365.745 773.849 365.787 773.934 365.847 774.002C365.908 774.069 365.985 774.12 366.077 774.155C366.168 774.188 366.268 774.205 366.377 774.205C366.55 774.205 366.69 774.172 366.797 774.107C366.903 774.042 366.957 773.942 366.957 773.807C366.957 773.712 366.928 773.637 366.872 773.58C366.817 773.522 366.731 773.479 366.614 773.452L366.079 773.32C365.871 773.27 365.704 773.192 365.579 773.085C365.454 772.978 365.392 772.829 365.392 772.637C365.39 772.486 365.426 772.352 365.499 772.237C365.572 772.122 365.682 772.032 365.829 771.965C365.976 771.898 366.158 771.865 366.377 771.865C366.657 771.865 366.882 771.928 367.054 772.055C367.227 772.18 367.317 772.364 367.324 772.607H366.917C366.9 772.484 366.844 772.387 366.749 772.315C366.656 772.242 366.53 772.205 366.372 772.205C366.207 772.205 366.072 772.238 365.969 772.305C365.866 772.37 365.814 772.472 365.814 772.61C365.814 772.702 365.851 772.774 365.924 772.827C365.997 772.879 366.106 772.922 366.249 772.957L366.767 773.088C366.887 773.119 366.985 773.161 367.062 773.212C367.14 773.264 367.202 773.322 367.247 773.385C367.293 773.448 367.326 773.515 367.344 773.585C367.364 773.653 367.374 773.719 367.374 773.782C367.374 773.941 367.334 774.077 367.254 774.192C367.176 774.306 367.062 774.394 366.914 774.457C366.767 774.519 366.589 774.55 366.379 774.55ZM371.995 773.123C371.995 773.414 371.947 773.667 371.852 773.882C371.757 774.096 371.603 774.261 371.39 774.377C371.178 774.493 370.897 774.55 370.547 774.55C370.196 774.55 369.914 774.492 369.702 774.375C369.491 774.257 369.337 774.089 369.242 773.872C369.149 773.656 369.102 773.397 369.102 773.097V770.885H369.845V773.152C369.845 773.422 369.91 773.62 370.04 773.745C370.17 773.868 370.339 773.93 370.547 773.93C370.686 773.93 370.808 773.903 370.915 773.85C371.021 773.795 371.105 773.711 371.165 773.597C371.226 773.482 371.257 773.334 371.257 773.152V770.885H371.995V773.123ZM374.078 774.55C373.9 774.55 373.725 774.528 373.553 774.482C373.381 774.437 373.225 774.37 373.083 774.28C372.941 774.19 372.824 774.077 372.73 773.942C372.639 773.807 372.584 773.649 372.565 773.467H373.313C373.338 773.577 373.385 773.67 373.455 773.745C373.525 773.82 373.614 773.877 373.72 773.917C373.827 773.957 373.945 773.977 374.075 773.977C374.209 773.977 374.33 773.961 374.44 773.927C374.55 773.894 374.639 773.844 374.705 773.777C374.772 773.709 374.805 773.624 374.805 773.522C374.805 773.431 374.778 773.356 374.723 773.297C374.67 773.239 374.597 773.192 374.505 773.155C374.414 773.118 374.31 773.088 374.193 773.065L373.568 772.938C373.295 772.886 373.078 772.777 372.918 772.612C372.758 772.446 372.675 772.224 372.67 771.947C372.669 771.721 372.729 771.525 372.85 771.36C372.974 771.193 373.14 771.065 373.35 770.975C373.562 770.885 373.799 770.84 374.06 770.84C374.372 770.84 374.634 770.889 374.845 770.987C375.059 771.084 375.22 771.216 375.33 771.382C375.442 771.547 375.5 771.732 375.503 771.935H374.77C374.757 771.808 374.719 771.707 374.655 771.632C374.592 771.557 374.51 771.503 374.41 771.47C374.312 771.437 374.2 771.42 374.073 771.42C373.976 771.42 373.888 771.431 373.808 771.452C373.73 771.474 373.663 771.505 373.608 771.545C373.553 771.583 373.51 771.629 373.48 771.682C373.45 771.736 373.435 771.796 373.435 771.862C373.435 771.967 373.47 772.052 373.54 772.117C373.61 772.182 373.741 772.236 373.933 772.277L374.553 772.405C374.775 772.448 374.95 772.512 375.08 772.597C375.212 772.682 375.31 772.778 375.375 772.885C375.442 772.992 375.485 773.101 375.505 773.212C375.527 773.322 375.538 773.424 375.538 773.517C375.538 773.712 375.476 773.888 375.353 774.045C375.231 774.2 375.061 774.323 374.843 774.415C374.625 774.505 374.37 774.55 374.078 774.55ZM378.609 774.55C378.176 774.55 377.824 774.463 377.554 774.29C377.284 774.115 377.129 773.846 377.089 773.482L377.849 773.467C377.889 773.632 377.975 773.758 378.107 773.845C378.24 773.93 378.407 773.972 378.607 773.972C378.727 773.972 378.833 773.953 378.924 773.915C379.018 773.875 379.091 773.822 379.144 773.755C379.198 773.687 379.224 773.609 379.224 773.522C379.224 773.389 379.182 773.29 379.097 773.225C379.012 773.158 378.881 773.105 378.704 773.065L378.112 772.938C377.837 772.882 377.616 772.773 377.449 772.61C377.284 772.445 377.2 772.224 377.197 771.947C377.195 771.721 377.256 771.525 377.379 771.36C377.504 771.193 377.673 771.065 377.887 770.975C378.102 770.885 378.343 770.84 378.609 770.84C378.883 770.84 379.118 770.889 379.317 770.987C379.517 771.084 379.67 771.215 379.777 771.38C379.885 771.543 379.938 771.724 379.934 771.922L379.197 771.935C379.173 771.775 379.12 771.649 379.037 771.557C378.953 771.466 378.815 771.42 378.622 771.42C378.522 771.42 378.433 771.431 378.354 771.452C378.276 771.474 378.208 771.505 378.152 771.545C378.095 771.583 378.052 771.629 378.022 771.682C377.993 771.736 377.979 771.796 377.979 771.862C377.979 771.967 378.014 772.051 378.084 772.112C378.156 772.172 378.29 772.228 378.487 772.28L379.069 772.422C379.398 772.501 379.634 772.635 379.779 772.825C379.926 773.015 379.999 773.246 379.999 773.517C379.999 773.726 379.942 773.907 379.827 774.062C379.713 774.217 379.553 774.337 379.344 774.422C379.136 774.508 378.891 774.55 378.609 774.55ZM378.297 770.367H378.929V771.017H378.297V770.367ZM378.284 774.327H378.914V774.978H378.284V774.327ZM381.105 774.5V771.792H380.46V771.38C380.667 771.38 380.833 771.361 380.96 771.322C381.088 771.282 381.184 771.226 381.248 771.152C381.311 771.077 381.348 770.988 381.36 770.885H381.845V774.5H381.105ZM383.999 770.835C384.429 770.835 384.768 770.996 385.016 771.317C385.265 771.637 385.389 772.098 385.389 772.7C385.389 773.298 385.266 773.757 385.021 774.077C384.776 774.396 384.435 774.555 383.999 774.555C383.56 774.555 383.218 774.396 382.971 774.077C382.726 773.759 382.604 773.301 382.604 772.702C382.604 772.302 382.66 771.963 382.774 771.685C382.887 771.407 383.048 771.196 383.256 771.052C383.465 770.907 383.712 770.835 383.999 770.835ZM383.999 773.957C384.214 773.957 384.371 773.862 384.471 773.67C384.571 773.477 384.621 773.154 384.621 772.702C384.621 772.241 384.57 771.91 384.469 771.71C384.367 771.51 384.21 771.41 383.996 771.41C383.783 771.41 383.624 771.511 383.519 771.712C383.415 771.914 383.364 772.244 383.364 772.702C383.364 773.152 383.415 773.474 383.519 773.667C383.622 773.861 383.782 773.957 383.999 773.957ZM387.449 770.885H388.167V773.088H388.724V773.7H388.167V774.5H387.464L387.467 773.7H385.802V773.1L387.449 770.885ZM386.477 773.088H387.467V771.762L386.477 773.088ZM389.116 774.5V773.705H389.916V774.5H389.116ZM391.763 774.555C391.538 774.555 391.328 774.512 391.133 774.425C390.938 774.338 390.779 774.217 390.656 774.06C390.532 773.902 390.463 773.717 390.448 773.505H391.143C391.173 773.645 391.24 773.759 391.343 773.847C391.447 773.934 391.577 773.977 391.733 773.977C391.907 773.977 392.058 773.937 392.188 773.855C392.32 773.773 392.418 773.643 392.483 773.465C392.55 773.287 392.573 773.053 392.553 772.765C392.507 772.853 392.442 772.931 392.358 772.997C392.277 773.062 392.181 773.113 392.071 773.15C391.961 773.185 391.838 773.202 391.703 773.202C391.458 773.202 391.241 773.157 391.051 773.065C390.862 772.972 390.714 772.84 390.606 772.67C390.499 772.498 390.446 772.295 390.446 772.06C390.446 771.823 390.502 771.612 390.616 771.427C390.729 771.242 390.887 771.097 391.091 770.992C391.294 770.887 391.532 770.835 391.806 770.835C392.112 770.835 392.377 770.908 392.598 771.055C392.822 771.2 392.992 771.407 393.111 771.675C393.231 771.942 393.291 772.256 393.291 772.617C393.291 773.049 393.229 773.409 393.106 773.697C392.984 773.984 392.809 774.199 392.581 774.342C392.352 774.484 392.08 774.555 391.763 774.555ZM391.828 772.622C391.93 772.622 392.028 772.6 392.123 772.555C392.22 772.508 392.299 772.45 392.361 772.38C392.422 772.31 392.453 772.237 392.453 772.162C392.455 772.001 392.429 771.862 392.376 771.747C392.324 771.631 392.251 771.542 392.156 771.48C392.062 771.418 391.953 771.387 391.828 771.387C391.713 771.387 391.611 771.414 391.521 771.467C391.431 771.521 391.36 771.596 391.308 771.692C391.257 771.789 391.231 771.901 391.231 772.027C391.231 772.216 391.286 772.362 391.396 772.467C391.506 772.571 391.65 772.622 391.828 772.622ZM395.112 770.835C395.542 770.835 395.881 770.996 396.13 771.317C396.378 771.637 396.502 772.098 396.502 772.7C396.502 773.298 396.38 773.757 396.135 774.077C395.89 774.396 395.549 774.555 395.112 774.555C394.674 774.555 394.331 774.396 394.085 774.077C393.84 773.759 393.717 773.301 393.717 772.702C393.717 772.302 393.774 771.963 393.887 771.685C394 771.407 394.161 771.196 394.37 771.052C394.578 770.907 394.825 770.835 395.112 770.835ZM395.112 773.957C395.327 773.957 395.485 773.862 395.585 773.67C395.685 773.477 395.735 773.154 395.735 772.702C395.735 772.241 395.684 771.91 395.582 771.71C395.48 771.51 395.323 771.41 395.11 771.41C394.896 771.41 394.737 771.511 394.632 771.712C394.529 771.914 394.477 772.244 394.477 772.702C394.477 773.152 394.529 773.474 394.632 773.667C394.735 773.861 394.895 773.957 395.112 773.957ZM396.995 774.5V773.91H397.545V774.5H396.995Z" fill="#36536B"/>
<path fill-rule="evenodd" clip-rule="evenodd" d="M345.909 752.228V750.741L347.12 748.691H346.352L345.56 750.125L344.758 748.691H343.997L345.206 750.738V752.228H345.909ZM348.537 752.277C348.79 752.277 349.007 752.221 349.186 752.11C349.365 751.999 349.502 751.847 349.597 751.652C349.693 751.457 349.741 751.232 349.741 750.978C349.741 750.707 349.692 750.473 349.594 750.274C349.496 750.075 349.357 749.921 349.177 749.813C348.997 749.704 348.785 749.65 348.539 749.65C348.293 749.65 348.08 749.706 347.899 749.816C347.719 749.927 347.579 750.082 347.48 750.281C347.382 750.48 347.332 750.712 347.332 750.978C347.332 751.244 347.382 751.474 347.48 751.668C347.579 751.862 347.719 752.012 347.899 752.118C348.08 752.224 348.292 752.277 348.537 752.277ZM348.228 751.631C348.304 751.708 348.407 751.746 348.539 751.746C348.663 751.746 348.762 751.709 348.838 751.636C348.913 751.563 348.968 751.466 349.003 751.346C349.037 751.226 349.054 751.095 349.054 750.954C349.054 750.82 349.039 750.694 349.007 750.575C348.976 750.455 348.923 750.359 348.847 750.286C348.772 750.213 348.669 750.176 348.539 750.176C348.415 750.176 348.315 750.211 348.239 750.28C348.163 750.349 348.107 750.443 348.072 750.561C348.036 750.679 348.019 750.81 348.019 750.954C348.019 751.086 348.035 751.212 348.067 751.334C348.099 751.455 348.153 751.554 348.228 751.631ZM351.125 752.277C351.223 752.277 351.323 752.262 351.425 752.231C351.527 752.201 351.618 752.147 351.697 752.068C351.777 751.988 351.831 751.875 351.86 751.726L351.942 752.228H352.472V749.699H351.776V751.345C351.776 751.475 351.735 751.577 351.654 751.649C351.573 751.722 351.463 751.758 351.325 751.758C351.179 751.758 351.068 751.721 350.993 751.646C350.918 751.571 350.88 751.474 350.88 751.357V749.699H350.177V751.448C350.177 751.583 350.204 751.702 350.26 751.805C350.315 751.907 350.389 751.994 350.48 752.064C350.572 752.134 350.673 752.187 350.785 752.223C350.896 752.259 351.01 752.277 351.125 752.277ZM353.746 750.844V752.228H353.043V749.699H353.719V750.298C353.759 750.169 353.816 750.056 353.889 749.959C353.962 749.862 354.051 749.787 354.155 749.732C354.26 749.677 354.378 749.65 354.509 749.65C354.532 749.65 354.553 749.651 354.573 749.654C354.593 749.656 354.608 749.66 354.618 749.665V750.345C354.603 750.338 354.586 750.334 354.566 750.332C354.546 750.331 354.528 750.329 354.512 750.328C354.374 750.316 354.256 750.32 354.158 750.34C354.06 750.359 353.98 750.393 353.919 750.44C353.858 750.487 353.814 750.545 353.787 750.614C353.759 750.682 353.746 750.759 353.746 750.844ZM356.559 752.228L356.85 751.408H358.102L358.387 752.228H359.087L357.842 748.691H357.101L355.853 752.228H356.559ZM357.007 750.785H357.934L357.474 749.381L357.007 750.785ZM360.224 753.015V751.849C360.26 751.909 360.301 751.965 360.348 752.016C360.396 752.068 360.449 752.113 360.51 752.152C360.57 752.191 360.635 752.222 360.706 752.244C360.777 752.266 360.852 752.277 360.932 752.277C361.128 752.277 361.304 752.229 361.46 752.135C361.615 752.04 361.738 751.895 361.827 751.698C361.916 751.502 361.961 751.25 361.961 750.944C361.961 750.649 361.919 750.405 361.837 750.214C361.754 750.022 361.64 749.88 361.496 749.788C361.351 749.696 361.187 749.65 361.002 749.65C360.917 749.65 360.836 749.66 360.759 749.681C360.682 749.701 360.61 749.73 360.545 749.767C360.479 749.805 360.419 749.849 360.365 749.898C360.311 749.948 360.266 750.003 360.229 750.063L360.227 749.699H359.521V753.015H360.224ZM360.461 751.641C360.541 751.716 360.642 751.753 360.764 751.753C360.916 751.753 361.044 751.689 361.148 751.56C361.251 751.431 361.303 751.227 361.303 750.949C361.303 750.704 361.254 750.513 361.155 750.375C361.056 750.237 360.926 750.169 360.764 750.169C360.582 750.169 360.447 750.243 360.358 750.392C360.269 750.541 360.224 750.727 360.224 750.949C360.224 751.091 360.244 751.223 360.283 751.345C360.323 751.467 360.382 751.566 360.461 751.641ZM363.131 753.015V751.849C363.166 751.909 363.208 751.965 363.255 752.016C363.302 752.068 363.356 752.113 363.416 752.152C363.477 752.191 363.542 752.222 363.613 752.244C363.683 752.266 363.759 752.277 363.839 752.277C364.035 752.277 364.211 752.229 364.367 752.135C364.522 752.04 364.645 751.895 364.734 751.698C364.823 751.502 364.868 751.25 364.868 750.944C364.868 750.649 364.826 750.405 364.743 750.214C364.661 750.022 364.547 749.88 364.403 749.788C364.258 749.696 364.094 749.65 363.909 749.65C363.824 749.65 363.743 749.66 363.666 749.681C363.589 749.701 363.517 749.73 363.451 749.767C363.386 749.805 363.326 749.849 363.272 749.898C363.218 749.948 363.173 750.003 363.136 750.063L363.134 749.699H362.428V753.015H363.131ZM363.368 751.641C363.448 751.716 363.549 751.753 363.671 751.753C363.823 751.753 363.951 751.689 364.055 751.56C364.158 751.431 364.21 751.227 364.21 750.949C364.21 750.704 364.161 750.513 364.062 750.375C363.963 750.237 363.833 750.169 363.671 750.169C363.489 750.169 363.354 750.243 363.265 750.392C363.176 750.541 363.131 750.727 363.131 750.949C363.131 751.091 363.151 751.223 363.19 751.345C363.229 751.467 363.289 751.566 363.368 751.641Z" fill="#BA4270"/>
<path opacity="0.5" fill-rule="evenodd" clip-rule="evenodd" d="M414.553 752.174C414.446 752.242 414.295 752.277 414.099 752.277C413.975 752.277 413.859 752.262 413.751 752.233C413.643 752.203 413.571 752.181 413.535 752.167L413.567 751.734C413.616 751.752 413.674 751.774 413.739 751.801C413.804 751.828 413.885 751.841 413.981 751.841C414.138 751.841 414.246 751.797 414.305 751.709C414.363 751.621 414.393 751.473 414.393 751.264V748.691H414.838V751.394C414.838 751.581 414.817 751.741 414.776 751.873C414.734 752.005 414.66 752.105 414.553 752.174ZM416.819 752.224C416.717 752.261 416.608 752.278 416.49 752.277C416.36 752.275 416.238 752.256 416.123 752.219C416.008 752.182 415.907 752.128 415.818 752.057C415.73 751.985 415.661 751.896 415.61 751.789C415.56 751.682 415.534 751.558 415.534 751.416V749.699H415.98V751.369C415.98 751.534 416.03 751.668 416.13 751.77C416.231 751.873 416.382 751.924 416.584 751.924C416.767 751.924 416.915 751.876 417.026 751.779C417.138 751.682 417.194 751.537 417.194 751.345V749.699H417.637V752.228H417.283L417.237 751.743C417.206 751.871 417.155 751.973 417.082 752.052C417.009 752.13 416.921 752.187 416.819 752.224ZM419.217 752.277C419.419 752.277 419.591 752.246 419.733 752.185C419.875 752.124 419.984 752.037 420.061 751.926C420.137 751.814 420.175 751.681 420.175 751.526C420.175 751.464 420.166 751.399 420.147 751.331C420.129 751.264 420.098 751.199 420.054 751.137C420.009 751.075 419.95 751.019 419.875 750.968C419.801 750.918 419.706 750.877 419.59 750.846L419.091 750.719C418.953 750.685 418.849 750.642 418.778 750.59C418.708 750.539 418.672 750.469 418.672 750.379C418.672 750.244 418.722 750.144 418.822 750.079C418.921 750.015 419.05 749.983 419.209 749.983C419.362 749.983 419.484 750.018 419.574 750.089C419.665 750.16 419.718 750.256 419.734 750.376H420.127C420.121 750.138 420.034 749.958 419.868 749.835C419.702 749.712 419.484 749.65 419.214 749.65C419.004 749.65 418.828 749.683 418.687 749.748C418.546 749.813 418.44 749.902 418.369 750.014C418.298 750.127 418.264 750.257 418.265 750.406C418.265 750.593 418.326 750.739 418.446 750.844C418.566 750.948 418.727 751.024 418.928 751.073L419.443 751.203C419.555 751.229 419.638 751.27 419.692 751.327C419.746 751.383 419.773 751.457 419.773 751.55C419.773 751.682 419.722 751.78 419.619 751.844C419.516 751.907 419.381 751.939 419.214 751.939C419.11 751.939 419.014 751.922 418.925 751.889C418.837 751.856 418.763 751.806 418.705 751.74C418.646 751.674 418.606 751.591 418.583 751.492H418.179C418.204 751.673 418.266 751.821 418.364 751.938C418.462 752.054 418.585 752.14 418.734 752.195C418.882 752.249 419.043 752.277 419.217 752.277ZM421.971 752.228C421.909 752.236 421.832 752.24 421.741 752.24C421.569 752.24 421.436 752.216 421.341 752.169C421.246 752.122 421.18 752.052 421.142 751.959C421.104 751.866 421.086 751.752 421.086 751.616V750.029H420.681V749.699H421.098L421.206 748.963H421.533V749.697H422.095V750.029H421.533V751.602C421.533 751.691 421.543 751.757 421.561 751.799C421.58 751.84 421.611 751.867 421.655 751.878C421.699 751.889 421.76 751.895 421.837 751.895H422.109V752.198C422.079 752.21 422.032 752.22 421.971 752.228ZM424.383 752.228V749.44L426.251 752.228H426.649V748.691H426.203V751.44L424.363 748.691H423.937V752.228H424.383ZM429.09 752.112C428.922 752.222 428.714 752.277 428.467 752.277C428.238 752.277 428.037 752.227 427.865 752.126C427.693 752.026 427.56 751.879 427.465 751.685C427.371 751.491 427.323 751.254 427.323 750.973C427.323 750.709 427.367 750.477 427.456 750.279C427.544 750.08 427.674 749.925 427.845 749.815C428.016 749.705 428.223 749.65 428.467 749.65C428.697 749.65 428.896 749.701 429.066 749.803C429.235 749.905 429.366 750.054 429.459 750.252C429.552 750.449 429.599 750.689 429.599 750.973C429.599 751.231 429.556 751.457 429.47 751.653C429.384 751.849 429.257 752.002 429.09 752.112ZM428.467 751.92C428.302 751.92 428.168 751.877 428.065 751.792C427.962 751.708 427.887 751.593 427.839 751.448C427.79 751.302 427.766 751.141 427.766 750.963C427.766 750.763 427.793 750.591 427.847 750.447C427.901 750.304 427.98 750.194 428.084 750.118C428.189 750.043 428.316 750.005 428.467 750.005C428.631 750.005 428.764 750.047 428.866 750.132C428.968 750.217 429.042 750.331 429.088 750.475C429.135 750.62 429.158 750.782 429.158 750.963C429.158 751.161 429.132 751.331 429.079 751.474C429.026 751.618 428.948 751.728 428.845 751.805C428.742 751.881 428.616 751.92 428.467 751.92ZM431.699 750.362L431.16 752.228H430.724L429.955 749.699H430.367L430.938 751.643H430.977L431.538 749.699H431.875L432.458 751.638H432.496L433.043 749.699H433.46L432.706 752.228H432.267L431.699 750.362Z" fill="#36536B"/>
</g>
<defs>
<linearGradient id="paint0_linear" x1="330.844" y1="660" x2="330.844" y2="665.915" gradientUnits="userSpaceOnUse">
<stop stop-color="#454545"/>
<stop offset="0.226279" stop-color="#999999"/>
<stop offset="1" stop-color="white"/>
</linearGradient>
<linearGradient id="paint1_linear" x1="451.799" y1="701.159" x2="447.223" y2="701.159" gradientUnits="userSpaceOnUse">
<stop stop-color="white" stop-opacity="0.01"/>
<stop offset="0.222178" stop-color="#BABABA"/>
<stop offset="0.54678" stop-color="white" stop-opacity="0.01"/>
<stop offset="1" stop-color="white" stop-opacity="0.01"/>
</linearGradient>
<linearGradient id="paint2_linear" x1="327.242" y1="701.034" x2="331.825" y2="701.034" gradientUnits="userSpaceOnUse">
<stop stop-color="white" stop-opacity="0.01"/>
<stop offset="0.222178" stop-color="#BABABA"/>
<stop offset="0.54678" stop-color="white" stop-opacity="0.01"/>
<stop offset="1" stop-color="white" stop-opacity="0.01"/>
</linearGradient>
<linearGradient id="paint3_linear" x1="333.44" y1="666" x2="333.44" y2="887.264" gradientUnits="userSpaceOnUse">
<stop stop-color="#9CB6CD"/>
<stop offset="0.420564" stop-color="#9AB3CA"/>
<stop offset="0.716592" stop-color="#557496"/>
<stop offset="1" stop-color="#475178"/>
</linearGradient>
<clipPath id="clip0">
<rect width="105" height="43" fill="white" transform="translate(336.244 740)"/>
</clipPath>
</defs>
</svg>
